<svg xmlns="http://www.w3.org/2000/svg" width="248" height="66" viewBox="0 0 248 66" fill="currentColor"><path d="M152.452 24.8018L151.297 22.3698C150.699 21.0898 149.929 20.5298 148.802 20.5298H147.847L150.955 27.0898H151.896C152.609 27.0898 153.037 26.8498 153.037 26.3858C153.022 26.0178 152.823 25.5698 152.452 24.8018Z" fill="currentColor" /><path fill-rule="evenodd" clip-rule="evenodd" d="M156.26 13L169.676 33.688L158.114 53H94.07L102.396 35.896H96.5222L79 13H156.26ZM88.9932 17.1538H97.2196L101.354 23.3938L99.8857 17.1538H106.302L110.45 23.3458L109.053 17.1538H114.129L116.438 30.4338H109.039L105.218 25.2818L106.145 30.4338H99.2299L88.9932 17.1538ZM115.027 17.1538H122.526L128.828 30.4338H121.343L115.027 17.1538ZM130.824 30.4338L124.522 17.1538H131.822L136.47 26.9458H142.7L144.354 30.4338H130.824ZM159.239 28.9778C158.013 30.3538 155.96 30.4498 154.163 30.4498H145.537L139.236 17.1698H149.287C153.536 17.1698 155.361 18.1618 156.701 19.6658C158.184 21.3298 159.98 24.7058 159.98 26.8658C159.98 27.8738 159.652 28.4978 159.239 28.9778ZM102.555 47.6177H116.085L117.739 44.1297H111.508L116.156 34.3376H108.856L102.555 47.6177ZM117.282 47.6177H124.782L131.083 34.3376H123.584L117.282 47.6177ZM138.412 38.1297H144.984L146.781 34.3376H133.08L126.778 47.6177H133.864L135.831 43.5376H141.891L143.53 40.0657H137.456L138.412 38.1297ZM153.581 37.6977H160.781L162.378 34.3376H148.292L141.99 47.6177H156.276L157.873 44.2578H150.416L151.243 42.5777H157.93L159.47 39.3136H152.769L153.581 37.6977Z" fill="currentColor" /></svg>