<svg xmlns="http://www.w3.org/2000/svg" width="248" height="66" viewBox="0 0 248 66" fill="currentColor"><g clip-path="url(#clip0_1125_25341)"><path d="M54.0459 34.2301L49.6192 19H37.5039V21.4603H38.6688C40.0668 21.4603 41.3482 22.2803 41.6977 23.8033L48.3378 47H54.3954L57.4242 36.6904C55.4438 36.6904 54.5119 35.9874 54.0459 34.2301Z" fill="currentColor" /><path d="M78.5098 44.5397C77.1119 44.5397 75.947 43.6025 75.481 42.0795L68.8409 19H59.5215L67.5595 47H79.6748V44.5397H78.5098Z" fill="currentColor" /><path d="M29 44.5398V47H39.7173V44.5398H29Z" fill="currentColor" /><path d="M103.439 28.1381L98.7794 41.3766H97.498L92.4888 28.1381L91.2074 38.3306C91.2074 38.5649 91.2074 38.7992 91.2074 38.9163C91.2074 40.2051 91.7899 40.4394 93.5373 40.5565V41.3766H87.8291V40.5565C89.227 40.4394 89.693 40.2051 89.8095 39.1507L91.3239 26.8494C91.4404 25.5607 90.8579 25.0921 89.227 24.9749V24.0377H94.8187C94.8187 24.6235 94.9352 24.9749 95.1682 25.5607L99.2454 36.3389L102.973 25.5607C103.206 24.9749 103.323 24.6235 103.323 24.0377H108.798V24.8578C107.167 24.9749 106.584 25.3264 106.701 26.7322L108.215 39.0335C108.332 40.2051 108.914 40.4394 110.196 40.4394V41.2594H102.391V40.4394C104.138 40.3222 104.721 40.0879 104.721 38.7992C104.721 38.682 104.721 38.4477 104.721 38.2134L103.439 28.1381ZM121.146 38.682C121.146 39.5021 121.379 40.0879 121.962 40.0879C122.311 40.0879 122.66 39.9707 122.893 39.8536L123.01 40.4394C122.311 41.2594 121.379 41.7281 120.214 41.7281C118.816 41.7281 118.001 40.908 117.768 39.5021C116.952 40.5565 115.671 41.6109 113.924 41.6109C111.943 41.6109 110.662 40.4394 110.662 38.4477C110.662 36.3389 112.176 35.4017 114.04 34.8159L117.768 33.4101V31.3013C117.768 29.8954 117.302 28.841 116.02 28.841C114.855 28.841 114.157 29.1925 113.807 29.6611C114.622 29.8954 114.972 30.4812 114.972 31.1841C114.972 32.2385 114.273 32.9415 113.108 32.9415C112.06 32.9415 111.361 32.2385 111.361 31.1841C111.361 29.0753 113.458 28.021 116.253 28.021C119.399 28.021 121.03 29.1925 121.03 32.1214V38.682H121.146ZM117.768 38.9163V34.3473L115.671 35.1674C114.622 35.636 113.924 36.1046 113.924 37.5105C113.924 38.7992 114.506 39.7364 115.787 39.7364C116.603 39.7364 117.069 39.385 117.768 38.9163ZM123.476 40.4394L123.359 37.0419H124.291C124.874 39.1507 126.039 40.7908 128.019 40.7908C129.301 40.7908 130.349 40.2051 130.349 38.7992C130.349 37.5105 129.417 36.9247 127.553 36.2218C124.99 35.2845 123.592 34.2302 123.592 32.0042C123.592 29.544 125.456 28.021 128.136 28.021C129.767 28.021 131.048 28.3724 132.213 29.0753V32.1214H131.397C130.931 30.364 130 28.9582 128.252 28.9582C126.971 28.9582 126.272 29.6611 126.272 30.8327C126.272 31.8871 127.087 32.4728 128.951 33.1758C131.63 34.113 133.145 35.0502 133.145 37.5105C133.145 40.0879 131.164 41.7281 128.136 41.7281C126.039 41.7281 124.524 41.1423 123.476 40.4394ZM138.271 28.3724H141.532V29.544H138.271V37.7448C138.271 39.2678 138.853 39.8536 140.018 39.8536C140.717 39.8536 141.183 39.6193 141.882 39.1507L142.231 39.6193C141.416 40.908 140.251 41.7281 138.387 41.7281C136.407 41.7281 134.892 40.6737 134.892 37.862V29.4268H133.378V28.9582C135.125 28.1381 136.523 26.8494 137.572 25.2092H138.387L138.271 28.3724ZM153.065 33.2929V33.8787H145.027C144.911 37.2762 146.658 39.385 149.104 39.385C150.735 39.385 151.9 38.682 152.832 37.3933L153.182 37.6276C152.599 40.0879 150.735 41.7281 147.939 41.7281C144.328 41.7281 141.998 39.0335 141.998 35.2845C141.998 31.067 144.678 28.1381 148.056 28.1381C151.434 28.1381 153.065 30.2469 153.065 33.2929ZM145.144 32.9415H150.036C150.036 30.5984 149.454 28.9582 147.823 28.9582C146.192 28.9582 145.377 30.5984 145.144 32.9415ZM177.995 25.3264V29.3097H177.063C176.48 26.4979 175.082 24.9749 172.636 24.9749C169.258 24.9749 167.743 28.3724 167.743 32.59C167.743 37.159 169.607 40.6737 172.869 40.6737C175.199 40.6737 176.713 39.1507 177.645 35.636H178.694L178.344 40.3222C176.946 41.2594 174.966 41.8452 172.636 41.8452C167.277 41.8452 164.015 38.4477 164.015 33.4101C164.015 27.6695 167.86 24.0377 172.636 24.0377C174.733 23.8034 176.48 24.3892 177.995 25.3264ZM184.169 39.5021C184.169 40.3222 184.518 40.5565 185.683 40.5565V41.3766H179.16V40.5565C180.324 40.4394 180.674 40.3222 180.674 39.5021V26.3808L179.276 25.5607V25.0921L183.586 23.9205H184.169V39.5021ZM193.139 38.9163V34.3473L191.042 35.1674C189.993 35.5189 189.411 36.1046 189.411 37.5105C189.411 38.7992 189.993 39.7364 191.275 39.7364C191.974 39.7364 192.556 39.385 193.139 38.9163ZM198.963 40.4394L198.847 37.0419H199.779C200.361 39.1507 201.526 40.7908 203.39 40.7908C204.672 40.7908 205.72 40.2051 205.72 38.7992C205.72 37.5105 204.788 36.9247 202.808 36.2218C200.245 35.2845 198.847 34.2302 198.847 32.0042C198.847 29.544 200.711 28.021 203.39 28.021C205.021 28.021 206.302 28.3724 207.351 29.0753V32.1214H206.535C206.069 30.364 205.137 28.9582 203.39 28.9582C202.109 28.9582 201.41 29.6611 201.41 30.8327C201.41 31.8871 202.225 32.4728 204.089 33.1758C206.768 34.113 208.283 35.0502 208.283 37.5105C208.283 40.0879 206.302 41.7281 203.274 41.7281C201.526 41.7281 199.895 41.1423 198.963 40.4394ZM209.564 40.4394L209.448 37.0419H210.38C210.962 39.1507 212.127 40.7908 214.107 40.7908C215.389 40.7908 216.437 40.2051 216.437 38.7992C216.437 37.5105 215.505 36.9247 213.641 36.2218C210.962 35.2845 209.681 34.2302 209.681 32.0042C209.681 29.544 211.545 28.021 214.224 28.021C215.855 28.021 217.136 28.3724 218.185 29.0753V32.1214H217.369C217.02 30.364 215.971 28.9582 214.224 28.9582C212.943 28.9582 212.244 29.6611 212.244 30.8327C212.244 31.8871 212.943 32.4728 214.923 33.1758C217.602 34.113 219.117 35.0502 219.117 37.5105C219.117 40.0879 217.136 41.7281 214.107 41.7281C212.244 41.7281 210.613 41.1423 209.564 40.4394ZM196.634 38.682C196.634 39.5021 196.867 40.0879 197.449 40.0879C197.798 40.0879 198.148 39.9707 198.381 39.8536L198.497 40.4394C197.798 41.2594 196.867 41.7281 195.702 41.7281C194.304 41.7281 193.488 40.908 193.255 39.5021C192.44 40.5565 191.158 41.6109 189.411 41.6109C187.431 41.6109 186.149 40.4394 186.149 38.4477C186.149 36.3389 187.664 35.4017 189.527 34.8159L193.255 33.4101V31.3013C193.255 29.8954 192.789 28.841 191.508 28.841C190.343 28.841 189.644 29.1925 189.294 29.6611C190.11 29.8954 190.459 30.4812 190.459 31.1841C190.459 32.2385 189.76 32.9415 188.596 32.9415C187.547 32.9415 186.848 32.2385 186.848 31.1841C186.848 29.0753 188.945 28.021 191.741 28.021C194.886 28.021 196.634 29.1925 196.634 32.1214V38.682ZM159.589 29.7783C159.589 30.9498 160.288 31.7699 161.336 31.7699C162.501 31.7699 163.317 30.9498 163.317 29.8954C163.317 28.7239 162.618 28.1381 161.686 28.1381C160.404 28.1381 159.472 29.0753 158.54 31.7699L158.657 28.1381H158.074L153.648 29.4268V29.8954L155.162 30.8327V39.6193C155.162 40.4394 154.813 40.6737 153.648 40.6737V41.4938H160.637V40.6737C159.123 40.5565 158.54 40.4394 158.54 39.385V33.0586C159.123 31.5356 159.938 30.4812 161.336 29.6611L159.589 29.7783Z" fill="currentColor" /></g><defs><clipPath id="clip0_1125_25341"><rect width="190" height="28" fill="currentColor" transform="translate(29 19)" /></clipPath></defs></svg>