<svg xmlns="http://www.w3.org/2000/svg" width="248" height="66" viewBox="0 0 248 66" fill="currentColor"><path d="M82.5534 43.8469C82.315 43.4645 81.7706 43.271 81.3432 43.4105C81.3432 43.4105 80.6594 43.6399 79.5571 43.9413C78.374 44.2608 77.2448 46.0648 76.5879 46.1458C75.7151 46.2493 72.8673 45.9389 72.8673 45.9389C72.4174 45.8894 71.8461 46.1503 71.5896 46.5237C71.5896 46.5237 70.9418 47.464 70.069 48.2198C69.1963 48.9711 69.0253 49.3625 69.0253 49.3625C68.8408 49.7764 68.6879 50.2038 68.6789 50.3163C68.6699 50.4288 69.0163 50.9866 69.4662 50.9866H69.9836C70.4334 50.9866 70.7934 50.6177 70.7844 50.1678C70.7844 50.1678 70.7754 49.6549 70.8024 49.439L70.8294 49.2365C70.9283 48.9621 71.2297 48.4402 71.4997 48.0803L72.0305 47.3785C72.2735 47.0006 72.5029 46.6902 72.5389 46.6947C72.5749 46.6992 72.9708 46.7352 73.4207 46.7847C73.4207 46.7847 75.1977 46.9691 76.111 46.9646C76.336 46.9646 76.5204 46.9556 76.6824 46.9331L76.7813 46.9196C76.8938 46.8881 76.8623 47.2165 76.7139 47.6394C76.7139 47.6394 76.219 49.0611 75.7961 49.9428C75.7421 50.0553 75.7331 50.1633 75.7331 50.1633C75.7016 50.6132 76.048 50.9821 76.4979 50.9821H83.7411C84.191 50.9821 84.5464 50.9326 84.5284 50.8696V50.8111C84.452 49.6819 84.6229 48.1163 84.6229 48.1163C84.6724 47.6664 84.4654 47.0276 84.164 46.6947L82.5534 43.8379V43.8469Z" fill="currentColor" /><path d="M96.991 15.8188V50.1722C96.991 50.6221 96.6266 50.991 96.1722 50.991H92.852C92.4066 50.991 92.1592 50.7885 92.3077 50.5456L92.2627 50.2217C91.9568 48.0487 90.7016 44.895 90.3147 44.4226L90.2607 44.3507C90.2157 44.2472 89.9188 45.093 89.8423 45.4394C89.7703 45.7903 89.6893 46.3346 89.6983 46.3571C89.7073 46.3841 89.7973 46.7576 89.8963 47.2029L90.1437 50.1722C90.1662 50.6266 90.0223 50.991 89.8288 50.991C89.6353 50.991 89.4509 50.6221 89.4284 50.1722C89.4284 50.1722 89.2934 47.0905 89.0685 46.6406L88.983 46.4606C88.9965 46.1682 89.1405 45.5833 89.2889 45.156C89.2889 45.156 90.0538 43.019 90.4586 40.3692C90.6566 39.069 90.7645 37.6474 90.6566 36.2842C90.6071 35.6768 91.9388 35.4159 92.0602 35.3574C92.2897 35.2449 92.6856 34.7186 93.0725 34.0797C93.4729 33.4139 93.8553 32.6221 94.0262 32.0507C94.0577 31.9383 93.7023 32.0012 93.7338 31.8888C93.7653 31.7718 93.7518 31.3129 93.7428 31.178C93.7473 30.7821 93.5134 30.5886 93.3244 30.4537C93.2029 30.3727 93.0995 30.3052 93.077 30.2242C93.023 30.0082 92.5776 29.2479 92.3302 29.131C92.0962 29.0185 92.0962 28.3931 92.1727 28.2267C92.2492 28.0557 92.852 27.6598 92.87 27.2819V27.2639C92.8745 27.1065 92.8385 27.0075 92.7756 26.9265C92.5731 26.6791 92.0827 26.5711 91.5114 25.2574C91.2594 24.6771 90.967 23.6243 90.8006 23.5209C90.2832 23.2105 89.3474 22.999 87.5929 22.7246C86.1982 22.5086 85.6224 24.1282 84.3896 25.5723C84.1377 25.8738 83.067 27.6599 83.067 27.6599C82.8376 28.0377 82.3292 28.5461 81.9468 28.7846C81.9468 28.7846 78.9775 30.5751 77.4074 31.7763C75.8373 32.973 74.7261 35.3349 72.6116 35.9198C71.6173 36.1897 69.6153 36.9545 68.9765 37.5754C67.7258 38.7856 67.2579 39.3614 66.934 40.4007C66.6191 41.4309 66.3177 42.3217 66.0972 42.938C65.8948 43.5229 65.7688 43.8648 65.7688 43.8648C65.6069 44.2832 65.3099 44.9535 65.103 45.3539C65.103 45.3539 63.9828 47.4909 63.5958 48.3232C63.3529 48.8585 63.4069 50.1812 63.4069 50.1812C63.4249 50.6311 63.0695 51 62.6151 51H61.8188C61.3734 51 61 50.6311 61 50.1812V31.16C61 22.2387 68.2387 15 77.1644 15H96.1767C96.6311 15 96.9955 15.3644 96.9955 15.8188H96.991Z" fill="currentColor" /><path d="M106.823 38.8215C107.696 38.3177 108.663 38.0612 109.698 38.0612C110.463 38.0612 111.219 38.2007 111.943 38.4796C112.663 38.754 113.306 39.1545 113.855 39.6673L113.99 39.7933L115.011 38.5426L114.885 38.4301C114.192 37.8228 113.387 37.3414 112.492 37.004C111.592 36.6666 110.652 36.4956 109.698 36.4956C108.348 36.4956 107.084 36.824 105.942 37.4674C104.799 38.1107 103.881 38.9925 103.224 40.0857C102.559 41.179 102.226 42.4026 102.226 43.7163C102.226 45.03 102.563 46.2582 103.224 47.3694C103.886 48.4761 104.794 49.3669 105.924 50.0193C107.053 50.6671 108.303 50.9955 109.64 50.9955C110.58 50.9955 111.52 50.829 112.434 50.4961C113.347 50.1677 114.157 49.7043 114.845 49.1195L114.908 49.0655V43.7163H113.342V48.2377C112.82 48.6021 112.249 48.8855 111.642 49.088C111.007 49.2994 110.36 49.4074 109.716 49.4074C108.677 49.4074 107.705 49.151 106.828 48.6426C105.951 48.1387 105.249 47.4459 104.731 46.5776C104.219 45.7093 103.962 44.7466 103.962 43.7118C103.962 42.6771 104.223 41.7368 104.731 40.8775C105.244 40.0227 105.946 39.3299 106.819 38.817L106.823 38.8215Z" fill="currentColor" /><path d="M174.911 36.6169H173.251L167.542 49.2903H160.609V36.6169H158.886V50.8739H168.594L168.752 50.8424V50.7524L170.317 47.1758H177.808L179.414 50.7704L179.459 50.8739H181.34L174.916 36.6169H174.911ZM177.115 45.5877H171.01L174.043 38.6774L177.115 45.5877Z" fill="currentColor" /><path d="M160.382 29.2749H162.105V16.6061H166.703V15H155.789V16.6061H160.382V29.2749Z" fill="currentColor" /><path d="M170.735 22.9495H179.081V27.7903L179.31 27.7138C179.45 27.6688 179.697 27.6418 179.859 27.6418C180.142 27.6418 180.444 27.8038 180.525 27.8623L180.799 28.0512V15H179.076V21.3659H170.731V15H169.008V29.2524H170.731V22.9495H170.735Z" fill="currentColor" /><path d="M103.697 27.6373C103.85 27.6373 104.003 27.6643 104.152 27.7138L104.385 27.7948V22.9495H112.731V29.2524H114.454V15H112.731V21.3659H104.385V15H102.662V28.0647L102.941 27.8578C103.09 27.7498 103.414 27.6329 103.697 27.6329V27.6373Z" fill="currentColor" /><path d="M126.663 37.463C125.579 36.8196 124.378 36.4912 123.086 36.4912C121.795 36.4912 120.594 36.8196 119.514 37.463C118.435 38.1063 117.567 38.9881 116.932 40.0813C116.298 41.1746 115.974 42.3982 115.974 43.7119C115.974 45.0256 116.298 46.2538 116.932 47.365C117.567 48.4717 118.435 49.3625 119.514 50.0149C120.59 50.6627 121.795 50.9911 123.091 50.9911C124.387 50.9911 125.588 50.6627 126.668 50.0149C127.747 49.3625 128.616 48.4717 129.25 47.365C129.884 46.2538 130.208 45.0256 130.208 43.7119C130.208 42.3982 129.884 41.1746 129.25 40.0813C128.62 38.9881 127.752 38.1063 126.668 37.463H126.663ZM123.109 49.403C122.128 49.403 121.206 49.1466 120.378 48.6382C119.541 48.1298 118.871 47.4325 118.385 46.5597C117.895 45.6914 117.647 44.7332 117.647 43.7074C117.647 42.6817 117.895 41.7324 118.385 40.8731C118.876 40.0139 119.546 39.3255 120.378 38.8261C121.21 38.3268 122.128 38.0748 123.113 38.0748C124.099 38.0748 124.99 38.3268 125.817 38.8261C126.645 39.321 127.311 40.0094 127.801 40.8731C128.292 41.7279 128.539 42.6817 128.539 43.7074C128.539 44.7332 128.292 45.6959 127.801 46.5597C127.311 47.4325 126.645 48.1298 125.817 48.6382C124.99 49.1466 124.081 49.403 123.113 49.403H123.109Z" fill="currentColor" /><path d="M141.502 44.3911C142.078 43.5948 142.37 42.5916 142.37 41.4039C142.37 39.8877 141.871 38.691 140.886 37.8587C139.905 37.0355 138.514 36.6125 136.742 36.6125H131.375V50.8695H133.098V46.3706H136.742C136.917 46.3706 137.21 46.3661 137.628 46.3391L140.575 50.7885L140.629 50.865H142.649L139.252 45.9927C140.211 45.6643 140.967 45.1244 141.502 44.3866V44.3911ZM140.706 41.4444C140.706 42.5286 140.364 43.3609 139.693 43.9277C139.014 44.4991 138.02 44.7915 136.742 44.7915H133.098V38.2006H136.742C138.024 38.2006 139.014 38.4796 139.693 39.0374C140.364 39.5818 140.701 40.3916 140.701 41.4444H140.706Z" fill="currentColor" /><path d="M146.366 36.6169H144.643V50.8739H146.366V36.6169Z" fill="currentColor" /><path d="M150.721 36.6169H148.998V50.8694H157.816V49.2858H150.721V36.6169Z" fill="currentColor" /><path d="M128.132 27.6733H119.94V22.7875H127.039V21.2084H119.94V16.5836H127.875V15H118.212V29.2524H128.132V27.6733Z" fill="currentColor" /><path d="M138.135 15H136.475L130.163 29.0095L130.051 29.2569H131.909L133.542 25.5588H141.032L142.684 29.2569H144.56L138.18 15.1035L138.135 15ZM140.335 23.9707H134.23L137.267 17.0605L140.335 23.9707Z" fill="currentColor" /><path d="M155.769 27.6733H148.674V15H146.955V29.2524H155.769V27.6733Z" fill="currentColor" /><path d="M179.874 28.591C179.473 28.591 179.145 28.8564 179.041 29.2254C177.709 29.5223 176.279 29.8057 174.745 30.0712C172.527 30.449 170.129 30.71 167.542 30.9934C164.982 31.2364 162.274 31.4613 159.466 31.6323C156.659 31.8257 153.753 31.9067 150.801 32.0192C149.326 32.0552 147.837 32.0866 146.343 32.1181C144.85 32.1226 143.347 32.1316 141.844 32.1361C140.342 32.1316 138.835 32.1226 137.337 32.1136C135.843 32.0821 134.358 32.0462 132.882 32.0147C129.931 31.9022 127.025 31.8212 124.218 31.6278C121.41 31.4568 118.698 31.2274 116.133 30.9844C114.855 30.8405 113.6 30.7145 112.408 30.557C111.805 30.476 111.207 30.4086 110.627 30.3231C110.051 30.2331 109.489 30.1476 108.94 30.0622C107.406 29.7967 105.975 29.5178 104.648 29.2164C104.544 28.852 104.211 28.582 103.815 28.582C103.334 28.582 102.947 28.9689 102.947 29.4503C102.947 29.9317 103.334 30.3186 103.815 30.3186C104.022 30.3186 104.211 30.2421 104.36 30.1206C105.696 30.5255 107.14 30.917 108.701 31.2723C109.259 31.3938 109.835 31.5153 110.415 31.6413C110.996 31.7627 111.585 31.8617 112.183 31.9787C113.398 32.2126 114.648 32.3746 115.935 32.5815C118.513 32.9324 121.239 33.2968 124.074 33.5218C126.904 33.7737 129.832 33.9852 132.81 34.1021C134.304 34.1471 135.807 34.1921 137.319 34.2416C138.821 34.2596 140.333 34.2776 141.844 34.3001C143.361 34.2776 144.872 34.2596 146.379 34.2416C147.886 34.1921 149.389 34.1471 150.878 34.1021C153.856 33.9807 156.785 33.7782 159.615 33.5218C162.445 33.2968 165.171 32.9324 167.758 32.577C170.313 32.2036 172.77 31.7807 174.988 31.2678C176.549 30.917 177.993 30.5255 179.334 30.1206C179.482 30.2421 179.671 30.3186 179.883 30.3186C180.364 30.3186 180.751 29.9272 180.751 29.4503C180.751 28.9734 180.359 28.582 179.883 28.582L179.874 28.591Z" fill="currentColor" /><path d="M186.211 15.2834C186.539 15.4724 186.8 15.7288 186.985 16.0572C187.174 16.3857 187.268 16.7501 187.268 17.1505C187.268 17.5509 187.174 17.9198 186.98 18.2527C186.787 18.5856 186.526 18.8465 186.197 19.04C185.864 19.2334 185.5 19.3279 185.099 19.3279C184.699 19.3279 184.334 19.2334 184.006 19.04C183.678 18.8465 183.417 18.5856 183.228 18.2572C183.039 17.9243 182.944 17.5644 182.944 17.164C182.944 16.7636 183.039 16.4036 183.228 16.0707C183.417 15.7378 183.678 15.4769 184.011 15.2879C184.343 15.0945 184.708 15 185.113 15C185.518 15 185.887 15.0945 186.215 15.2834H186.211ZM186.022 18.7476C186.296 18.5856 186.517 18.3607 186.674 18.0817C186.832 17.8028 186.913 17.4924 186.913 17.1505C186.913 16.8085 186.836 16.5026 186.679 16.2282C186.521 15.9538 186.31 15.7333 186.035 15.5759C185.761 15.4184 185.455 15.3374 185.108 15.3374C184.762 15.3374 184.456 15.4184 184.177 15.5804C183.898 15.7423 183.682 15.9628 183.525 16.2417C183.367 16.5206 183.291 16.8265 183.291 17.1685C183.291 17.5104 183.367 17.8163 183.525 18.0952C183.682 18.3742 183.898 18.5946 184.173 18.7566C184.447 18.9185 184.757 18.9995 185.095 18.9995C185.432 18.9995 185.743 18.9185 186.017 18.7521L186.022 18.7476ZM186.094 17.2584C186.008 17.3844 185.891 17.4834 185.734 17.5464L186.274 18.3742H185.747L185.27 17.6363H184.726V18.3742H184.2V15.9583H185.207C185.522 15.9583 185.77 16.0347 185.954 16.1832C186.134 16.3362 186.229 16.5386 186.229 16.795C186.229 16.975 186.188 17.128 186.103 17.2539L186.094 17.2584ZM185.171 17.2269C185.342 17.2269 185.477 17.191 185.572 17.1145C185.666 17.038 185.711 16.9345 185.711 16.7995C185.711 16.6646 185.666 16.5611 185.572 16.4891C185.477 16.4171 185.347 16.3767 185.171 16.3767H184.717V17.2269H185.171Z" fill="currentColor" /></svg>