<svg xmlns="http://www.w3.org/2000/svg" width="248" height="66" viewBox="0 0 248 66" fill="currentColor"><g><path d="M147.114 17.8274L142.348 17.4121C142.316 17.409 142.283 17.4133 142.252 17.4247C142.221 17.436 142.194 17.4542 142.171 17.4778L138.742 21.0331C138.713 21.0625 138.694 21.0993 138.686 21.1392C138.677 21.179 138.68 21.2205 138.694 21.2587C138.708 21.2969 138.733 21.3305 138.765 21.3556C138.797 21.3806 138.836 21.3962 138.877 21.4006L149.898 22.5956L147.114 17.8274Z" fill="currentColor" /><path d="M145.362 10.0682L140.635 14.965C140.607 14.9949 140.588 15.0321 140.579 15.0723C140.571 15.1125 140.575 15.1541 140.589 15.1926C140.603 15.231 140.628 15.2647 140.661 15.2899C140.693 15.3152 140.732 15.3309 140.773 15.3354L155.572 16.7635L154.353 10.7524L145.539 9.99953C145.506 9.99763 145.473 10.0028 145.443 10.0146C145.412 10.0265 145.385 10.0448 145.362 10.0682Z" fill="currentColor" /><path d="M149.774 10.3645C150.99 11.0434 152.036 11.9874 152.833 13.1257C153.631 14.264 154.159 15.5671 154.378 16.9373L156.381 29.8976C156.387 29.9378 156.405 29.9754 156.431 30.0062C156.458 30.0371 156.493 30.0598 156.532 30.072C156.571 30.0841 156.613 30.0851 156.653 30.0748C156.692 30.0646 156.728 30.0436 156.756 30.0141L161.543 25.0546C161.567 25.0299 161.584 25 161.594 24.9673C161.604 24.9346 161.606 24.9001 161.6 24.8664L159.387 11.3444C159.378 11.2966 159.355 11.2529 159.319 11.22C159.283 11.187 159.237 11.1667 159.189 11.1622L149.774 10.3645Z" fill="currentColor" /><path d="M145.37 17.6869L152.578 18.3173L154.148 28.4992C154.153 28.5323 154.151 28.5662 154.141 28.5983C154.131 28.6304 154.114 28.6598 154.091 28.6844L150.731 32.1649C150.702 32.1945 150.666 32.2155 150.626 32.2255C150.586 32.2353 150.543 32.2339 150.504 32.2211C150.465 32.2082 150.43 32.1847 150.404 32.1531C150.378 32.1215 150.361 32.0832 150.355 32.0424L149.277 24.0864C149.112 22.8072 148.679 21.5766 148.006 20.4744C147.333 19.372 146.435 18.4224 145.37 17.6869Z" fill="currentColor" /><path d="M136.015 34.5374C132.55 33.9398 132.081 33.2795 132.081 32.7029C132.081 32.0158 132.61 31.0986 135.685 31.0986C136.881 31.1193 138.057 31.3997 139.133 31.9202C139.204 31.9531 139.284 31.9628 139.361 31.9477C139.438 31.9327 139.509 31.8938 139.562 31.8366L141.965 29.3658C142.006 29.3245 142.038 29.2742 142.057 29.2187C142.076 29.1632 142.081 29.104 142.073 29.0461C142.065 28.988 142.043 28.9327 142.01 28.8844C141.976 28.8362 141.932 28.7965 141.88 28.7682C140.007 27.6673 137.876 27.074 135.7 27.0474C130.553 27.0474 127.946 30.0051 127.946 32.5356C127.946 37.1605 132.051 37.9134 135.349 38.5109C139.553 39.2787 139.853 39.927 139.853 40.8293C139.853 42.5382 136.67 42.6726 135.697 42.6726C133.712 42.6726 131.661 41.5134 130.955 41.0742C130.881 41.0283 130.794 41.0092 130.707 41.0201C130.621 41.031 130.541 41.0712 130.481 41.134L128.144 43.5689C128.107 43.6068 128.078 43.6522 128.06 43.702C128.042 43.7518 128.035 43.8049 128.039 43.8577C128.043 43.9106 128.058 43.962 128.083 44.0085C128.109 44.0551 128.144 44.0957 128.186 44.1276C129.114 44.8327 131.943 46.7149 135.694 46.7149C140.766 46.7149 143.917 44.4592 143.917 40.8293C143.893 35.8639 138.769 35.0154 136.015 34.5374Z" fill="currentColor" /><path d="M149.087 45.1971C149.09 45.383 149.057 45.5677 148.988 45.7408C148.927 45.8915 148.836 46.0285 148.721 46.1441C148.609 46.2533 148.476 46.3396 148.33 46.3981C148.032 46.5136 147.701 46.5136 147.402 46.3981C147.257 46.3403 147.126 46.2539 147.015 46.1441C146.899 46.0287 146.807 45.8916 146.745 45.7408C146.676 45.5677 146.643 45.383 146.646 45.1971C146.643 45.0121 146.676 44.8283 146.745 44.6563C146.806 44.5049 146.898 44.3677 147.015 44.253C147.126 44.1432 147.257 44.0569 147.402 43.999C147.701 43.8835 148.032 43.8835 148.33 43.999C148.479 44.058 148.615 44.1467 148.728 44.2598C148.841 44.3728 148.93 44.5078 148.988 44.6563C149.057 44.8283 149.09 45.0121 149.087 45.1971ZM148.826 45.1971C148.827 45.0518 148.804 44.9074 148.757 44.7698C148.713 44.6477 148.645 44.5352 148.559 44.4382C148.475 44.3467 148.373 44.2743 148.258 44.226C148.136 44.1753 148.004 44.1499 147.871 44.1514C147.738 44.1493 147.606 44.1747 147.484 44.226C147.368 44.2728 147.266 44.3455 147.183 44.4382C147.096 44.5344 147.028 44.6472 146.985 44.7698C146.936 44.9068 146.911 45.0515 146.913 45.1971C146.911 45.3436 146.936 45.4893 146.985 45.6273C147.028 45.7499 147.096 45.8627 147.183 45.9589C147.266 46.0508 147.369 46.1233 147.484 46.171C147.606 46.2224 147.738 46.2479 147.871 46.2457C148.004 46.2472 148.136 46.2218 148.258 46.171C148.372 46.1216 148.474 46.0494 148.559 45.9589C148.645 45.8619 148.713 45.7494 148.757 45.6273C148.805 45.4888 148.829 45.3435 148.829 45.1971H148.826ZM148.225 45.9051C148.172 45.8009 148.111 45.701 148.042 45.6064C147.988 45.5271 147.929 45.4512 147.865 45.3793H147.628V45.9111H147.372V44.5338C147.44 44.518 147.508 44.507 147.577 44.5009C147.649 44.5009 147.712 44.5009 147.772 44.5009C147.936 44.491 148.099 44.5306 148.24 44.6145C148.294 44.654 148.338 44.7065 148.366 44.7671C148.394 44.8276 148.407 44.8943 148.402 44.961C148.405 45.0426 148.379 45.1225 148.33 45.1881C148.281 45.2572 148.212 45.3102 148.132 45.3404C148.156 45.3673 148.183 45.4032 148.216 45.448L148.312 45.5885L148.412 45.7527C148.444 45.8085 148.474 45.8653 148.502 45.9231L148.225 45.9051ZM147.625 45.1672H147.76C147.851 45.1697 147.942 45.1545 148.027 45.1224C148.062 45.1073 148.092 45.0816 148.111 45.0488C148.131 45.0161 148.139 44.978 148.135 44.9401C148.138 44.9027 148.13 44.8654 148.112 44.8325C148.094 44.7996 148.066 44.7727 148.033 44.7549C147.956 44.7197 147.872 44.7023 147.787 44.7041H147.625V45.1672Z" fill="currentColor" /><path d="M95.9275 42.7056C94.982 42.7068 94.0503 42.48 93.2121 42.0446C92.374 41.6092 91.6545 40.9781 91.1151 40.2056C90.5758 39.433 90.2327 38.5418 90.1153 37.6084C89.9978 36.6751 90.1095 35.7273 90.4408 34.8464C90.7722 33.9654 91.3132 33.1774 92.0176 32.5499C92.722 31.9224 93.5687 31.4741 94.4854 31.2435C95.402 31.0128 96.3612 31.0066 97.2808 31.2254C98.2003 31.4442 99.0529 31.8815 99.7655 32.4998C99.8194 32.5477 99.8899 32.5729 99.9622 32.5701C100.034 32.5673 100.103 32.5368 100.153 32.4849L102.582 29.9544C102.609 29.9283 102.629 29.8973 102.644 29.8632C102.658 29.8291 102.665 29.7926 102.665 29.7557C102.665 29.7188 102.658 29.6823 102.644 29.6482C102.629 29.6141 102.609 29.5831 102.582 29.557C101.158 28.2822 99.3936 27.4453 97.5014 27.1476C95.6093 26.8498 93.671 27.104 91.9211 27.8794C90.1712 28.6548 88.6846 29.9182 87.6414 31.5166C86.5982 33.1149 86.043 34.9799 86.043 36.8856C86.043 38.7914 86.5982 40.6564 87.6414 42.2548C88.6846 43.8531 90.1712 45.1165 91.9211 45.8919C93.671 46.6673 95.6093 46.9215 97.5014 46.6237C99.3936 46.326 101.158 45.4891 102.582 44.2143C102.609 44.1882 102.629 44.1572 102.644 44.1231C102.658 44.0891 102.665 44.0525 102.665 44.0156C102.665 43.9787 102.658 43.9422 102.644 43.9081C102.629 43.874 102.609 43.843 102.582 43.817L100.153 41.2894C100.101 41.2396 100.031 41.2118 99.9592 41.2118C99.8869 41.2118 99.8175 41.2396 99.7655 41.2894C98.7006 42.208 97.3369 42.7112 95.9275 42.7056Z" fill="currentColor" /><path d="M116.351 27.0294C114.064 26.9026 111.804 27.57 109.957 28.9176V27.5911C109.957 27.5483 109.94 27.5073 109.91 27.4771C109.879 27.4467 109.838 27.4298 109.795 27.4298H106.041C105.998 27.4297 105.956 27.4467 105.925 27.4769C105.895 27.507 105.877 27.548 105.876 27.5911V52H109.951V44.8536C111.197 45.7522 112.636 46.3498 114.155 46.5991C115.673 46.8484 117.229 46.7425 118.699 46.2898C120.169 45.837 121.513 45.0499 122.624 43.9908C123.735 42.9317 124.583 41.6297 125.101 40.1879C125.619 38.7462 125.792 37.2043 125.606 35.6845C125.421 34.1646 124.883 32.7087 124.033 31.4318C123.184 30.155 122.048 29.0924 120.715 28.3283C119.381 27.5641 117.887 27.1194 116.351 27.0294ZM115.804 42.7055C114.647 42.7055 113.516 42.3642 112.554 41.7246C111.592 41.0852 110.842 40.1763 110.4 39.1128C109.957 38.0493 109.841 36.8792 110.067 35.7502C110.292 34.6213 110.849 33.5843 111.668 32.7703C112.486 31.9564 113.528 31.4021 114.663 31.1775C115.798 30.953 116.974 31.0683 118.043 31.5087C119.112 31.9492 120.026 32.6952 120.668 33.6523C121.311 34.6094 121.654 35.7345 121.654 36.8856C121.653 38.4297 121.035 39.91 119.937 41.0013C118.839 42.0925 117.35 42.7055 115.798 42.7055H115.804Z" fill="currentColor" /></g></svg>