<svg xmlns="http://www.w3.org/2000/svg" width="248" height="66" viewBox="0 0 248 66" fill="currentColor"><path d="M61.4984 18C61.4687 18 61.4687 18 61.4687 18C57.5683 18 53.8764 19.53 51.1074 22.26C49.7081 21.66 48.1599 21.33 46.5819 21.33C40.2104 21.33 35 26.55 35 33C35 39.45 40.1806 44.67 46.5819 44.67C48.1301 44.67 49.6783 44.34 51.0777 43.74C53.7573 46.38 57.4194 48 61.4389 48C69.6565 48 76.3257 41.28 76.3257 33C76.3555 24.75 69.6861 18 61.4984 18ZM61.4687 44.67C55.0971 44.67 49.8868 39.45 49.8868 33H46.5819C46.5819 35.94 47.4156 38.7 48.8744 41.01C48.1301 41.22 47.356 41.34 46.5819 41.34C42.0266 41.34 38.3049 37.59 38.3049 33C38.3049 28.41 42.0266 24.66 46.5819 24.66C48.3981 24.66 50.0952 25.23 51.5541 26.34C53.668 27.93 54.859 30.36 54.859 33H58.1936C58.1936 29.52 56.7049 26.28 54.0551 24.06C56.1392 22.32 58.7593 21.33 61.4984 21.33C67.87 21.33 73.0803 26.58 73.0803 33C73.0506 39.42 67.87 44.67 61.4687 44.67ZM84.7516 41.37V30.69H82.5186V28.02H84.7516V24.06H87.8778V28.02H90.1108V30.69H87.8778V41.37H84.7516ZM93.3561 26.07C92.314 26.07 91.4507 25.2 91.4507 24.15C91.4507 23.07 92.314 22.2 93.3561 22.2C94.4578 22.2 95.2915 23.1 95.2915 24.15C95.2915 25.2 94.4876 26.07 93.3561 26.07ZM91.8377 41.37V28.02H94.9639V41.37H91.8377ZM109.642 38.22C108.541 40.32 106.486 41.67 103.658 41.67C99.6383 41.67 96.7801 38.79 96.7801 34.68C96.7801 30.69 99.6979 27.69 103.509 27.69C107.379 27.69 110.089 30.69 110.089 34.68C110.089 34.92 110.089 35.25 110.059 35.64H99.8766C100.025 37.56 101.722 39.03 103.688 39.03C105.414 39.03 106.308 38.19 107.052 37.02L109.642 38.22ZM106.992 33.36C106.784 31.59 105.385 30.27 103.449 30.27C101.574 30.27 100.115 31.83 99.9063 33.36H106.992ZM114.912 41.37H111.786V28.02H114.912V29.79C115.746 28.5 117.115 27.69 118.961 27.69C122.207 27.69 124.082 29.85 124.082 33.33V41.37H120.956V33.93C120.956 31.86 119.944 30.6 118.009 30.6C116.133 30.6 114.912 32.04 114.912 34.32V41.37ZM136.677 41.37V39.45C135.694 40.83 134.027 41.67 132.181 41.67C128.519 41.67 125.72 38.67 125.72 34.68C125.72 30.75 128.519 27.69 132.181 27.69C134.027 27.69 135.694 28.44 136.677 29.85V23.01H139.773V41.37H136.677ZM132.836 38.82C135.069 38.82 136.796 36.96 136.796 34.68C136.796 32.4 135.069 30.54 132.836 30.54C130.603 30.54 128.876 32.4 128.876 34.68C128.876 36.96 130.603 38.82 132.836 38.82ZM146.323 33.48L149.926 33.03V32.46C149.926 31.14 149.003 30.27 147.573 30.27C146.234 30.27 145.37 30.96 144.954 32.28L142.095 31.53C142.75 29.13 144.864 27.66 147.573 27.66C151.028 27.66 152.962 29.49 152.962 32.64V41.31H150.044L150.016 39.69C149.122 40.98 147.603 41.64 145.877 41.64C143.376 41.64 141.619 40.02 141.619 37.77C141.619 35.4 143.197 33.96 146.323 33.48ZM146.621 39.15C148.557 39.15 149.956 37.89 149.956 36.12V35.37L146.949 35.79C145.46 35.97 144.745 36.66 144.745 37.62C144.745 38.58 145.519 39.15 146.621 39.15ZM158.62 41.37H155.493V28.02H158.62V29.79C159.453 28.5 160.823 27.69 162.669 27.69C165.914 27.69 167.79 29.85 167.79 33.33V41.37H164.663V33.93C164.663 31.86 163.651 30.6 161.717 30.6C159.84 30.6 158.62 32.04 158.62 34.32V41.37ZM170.052 35.61V28.02H173.179V35.43C173.179 37.53 174.191 38.79 175.948 38.79C177.674 38.79 178.717 37.53 178.717 35.43V28.02H181.843V35.61C181.843 39.45 179.64 41.67 175.948 41.67C172.286 41.7 170.052 39.45 170.052 35.61ZM184.344 41.37V23.01H187.44V29.94C188.423 28.56 190.09 27.72 191.937 27.72C195.599 27.72 198.397 30.72 198.397 34.71C198.397 38.64 195.599 41.7 191.937 41.7C190.09 41.7 188.423 40.95 187.44 39.54V41.37H184.344ZM191.311 30.54C189.078 30.54 187.351 32.4 187.351 34.68C187.351 36.96 189.078 38.82 191.311 38.82C193.544 38.82 195.271 36.96 195.271 34.68C195.271 32.4 193.544 30.54 191.311 30.54ZM212.331 38.22C211.23 40.32 209.176 41.67 206.347 41.67C202.328 41.67 199.469 38.79 199.469 34.68C199.469 30.69 202.387 27.69 206.198 27.69C210.069 27.69 212.778 30.69 212.778 34.68C212.778 34.92 212.778 35.25 212.748 35.64H202.566C202.714 37.56 204.411 39.03 206.377 39.03C208.103 39.03 208.997 38.19 209.741 37.02L212.331 38.22ZM209.681 33.36C209.473 31.59 208.073 30.27 206.138 30.27C204.262 30.27 202.803 31.83 202.596 33.36H209.681Z" fill="currentColor" /></svg>