<svg xmlns="http://www.w3.org/2000/svg" width="248" height="66" viewBox="0 0 248 66" fill="currentColor"><path d="M69.8055 30.4582C65.8288 29.3834 64.6465 28.631 64.6465 27.0188C64.6465 25.944 65.6138 24.8693 68.0859 24.8693C70.0618 24.7827 71.9924 25.4777 73.4598 26.8039C73.5673 27.0188 73.7823 26.8039 73.8897 26.8039L76.1468 24.4393C76.2543 24.4393 76.1468 24.2244 76.1468 24.0094C74.4271 21.7524 71.2028 21 68.1933 21C63.5717 21 60.0249 23.1496 60.0249 27.1263C60.0249 31.2105 62.8194 33.0377 67.9784 34.5424C70.8803 35.4022 72.4925 36.0471 72.4925 37.7668C72.4925 39.2715 70.6654 40.1313 68.4083 40.1313C65.9363 40.1313 63.6792 39.7014 61.9595 37.7668H61.4221L59.0576 40.4537C59.0199 40.5191 59 40.5932 59 40.6687C59 40.7442 59.0199 40.8183 59.0576 40.8837C61.2072 43.2482 64.6465 44.108 68.0859 44.108C72.8149 44.108 77.0066 42.1734 77.0066 37.6593C77.0066 33.3601 74.2122 31.7479 69.8055 30.4582ZM99.8997 21.4299H96.1379C96.0403 21.4268 95.9445 21.4571 95.8664 21.5157C95.7882 21.5743 95.7324 21.6578 95.708 21.7524V34.9723C95.708 37.8742 94.6332 39.7014 91.1939 39.7014C87.862 39.7014 86.6798 38.0892 86.6798 35.0798V21.7524C86.6798 21.6449 86.4648 21.4299 86.2498 21.4299H82.3806C82.283 21.4268 82.1872 21.4571 82.109 21.5157C82.0309 21.5743 81.975 21.6578 81.9507 21.7524V35.8321C81.9507 41.2061 85.39 44.0006 91.0864 44.0006C96.7828 44.0006 100.437 41.0986 100.437 35.7247V21.7524C100.437 21.6668 100.403 21.5848 100.343 21.5244C100.282 21.4639 100.2 21.4299 100.115 21.4299M115.162 21.1075C109.465 21.1075 105.811 24.0094 105.811 29.3834V43.3557C105.793 43.4058 105.788 43.4596 105.796 43.5122C105.804 43.5648 105.825 43.6146 105.857 43.6572C105.889 43.6997 105.931 43.7337 105.979 43.7561C106.027 43.7786 106.08 43.7887 106.134 43.7856H110.11C110.189 43.7675 110.261 43.7277 110.318 43.6707C110.375 43.6136 110.415 43.5417 110.433 43.4632V30.0283C110.433 27.1263 111.507 25.2992 115.054 25.2992C118.279 25.2992 119.568 26.9114 119.568 29.9208V43.3557C119.568 43.4632 119.568 43.7856 119.891 43.7856H123.76C123.817 43.7856 123.872 43.7745 123.925 43.7529C123.977 43.7313 124.024 43.6996 124.064 43.6597C124.104 43.6198 124.136 43.5724 124.157 43.5202C124.179 43.468 124.19 43.4121 124.19 43.3557V29.3834C124.19 24.0094 120.751 21.1075 115.054 21.1075M164.817 21.4299H160.84C160.762 21.448 160.69 21.4878 160.633 21.5449C160.576 21.6019 160.536 21.6738 160.518 21.7524V34.9723C160.518 37.8742 159.443 39.7014 155.896 39.7014C152.672 39.7014 151.382 38.0892 151.382 35.0798V21.7524C151.382 21.6449 151.275 21.4299 151.06 21.4299H147.083C147.005 21.448 146.933 21.4878 146.876 21.5449C146.819 21.6019 146.779 21.6738 146.761 21.7524V35.8321C146.761 41.2061 150.2 44.0006 155.896 44.0006C161.485 44.0006 165.14 41.0986 165.14 35.7247V21.7524C165.14 21.6668 165.106 21.5848 165.045 21.5244C164.985 21.4639 164.903 21.4299 164.817 21.4299ZM179.864 21.1075C174.168 21.1075 170.514 24.0094 170.514 29.3834V43.3557C170.496 43.4058 170.491 43.4596 170.499 43.5122C170.507 43.5648 170.528 43.6146 170.559 43.6572C170.591 43.6997 170.633 43.7337 170.682 43.7561C170.73 43.7786 170.783 43.7887 170.836 43.7856H174.813C174.91 43.7887 175.006 43.7584 175.084 43.6998C175.162 43.6412 175.218 43.5578 175.243 43.4632V30.0283C175.243 27.1263 176.317 25.2992 179.757 25.2992C182.981 25.2992 184.271 26.9114 184.271 29.9208V43.3557C184.271 43.4632 184.378 43.7856 184.701 43.7856H188.57C188.684 43.7856 188.793 43.7403 188.874 43.6597C188.955 43.5791 189 43.4697 189 43.3557V29.3834C189 24.0094 185.453 21.1075 179.864 21.1075ZM142.032 21.1075H139.882C134.186 21 130.531 24.0094 130.531 29.3834V43.3557C130.515 43.3979 130.507 43.4431 130.509 43.4884C130.511 43.5337 130.522 43.5781 130.543 43.6187C130.563 43.6593 130.592 43.6951 130.627 43.7239C130.662 43.7526 130.702 43.7737 130.746 43.7856H134.83C134.916 43.7856 134.998 43.7516 135.058 43.6912C135.119 43.6307 135.153 43.5487 135.153 43.4632V30.0283C135.153 27.1263 136.228 25.2992 139.667 25.2992H141.817C141.91 25.3149 142.005 25.31 142.096 25.2847C142.188 25.2595 142.272 25.2145 142.344 25.153C142.416 25.0914 142.473 25.0149 142.512 24.9287C142.551 24.8425 142.57 24.7488 142.569 24.6543V21.8598C142.588 21.7568 142.582 21.6507 142.551 21.5506C142.52 21.4505 142.465 21.3595 142.391 21.2854C142.317 21.2113 142.226 21.1564 142.126 21.1254C142.026 21.0944 141.92 21.0882 141.817 21.1075" fill="currentColor" /></svg>