<svg xmlns="http://www.w3.org/2000/svg" width="248" height="66" viewBox="0 0 248 66" fill="none"><path d="M80.6028 31.3522C80.9894 31.4656 81.4378 31.5249 81.7831 31.6408C85.6485 32.9603 87.3983 36.0217 86.986 40.0366C86.9448 40.4455 86.9027 40.8535 86.8597 41.2607C86.5763 43.9304 84.5739 46.3167 82.2057 47.296C80.9378 47.8217 79.3908 48.0862 77.5646 48.0897C70.0896 48.0983 62.6456 48.0922 55.2325 48.0716C55.1758 48.0716 55.1214 48.0491 55.0813 48.009C55.0412 47.9689 55.0187 47.9145 55.0187 47.8577C55.0058 37.6452 54.9568 27.4404 55.0985 17.2459C55.0992 17.2003 55.1176 17.1568 55.1498 17.1245C55.1821 17.0923 55.2256 17.0739 55.2712 17.0732C61.242 16.9495 67.2129 17.0526 73.1837 17.0062C78.0413 16.9676 84.0508 16.9289 85.347 22.8585C86.2412 26.9559 84.3497 29.7906 80.5977 31.195C80.5811 31.2009 80.5669 31.2118 80.557 31.2263C80.5471 31.2407 80.5421 31.258 80.5426 31.2755C80.5432 31.293 80.5494 31.3099 80.5602 31.3237C80.571 31.3375 80.5859 31.3475 80.6028 31.3522ZM62.5949 22.6884V28.9505C62.5949 29.0209 62.6229 29.0884 62.6727 29.1382C62.7225 29.188 62.79 29.2159 62.8604 29.2159H74.6784C75.5703 29.2159 76.4257 28.895 77.0563 28.3238C77.687 27.7525 78.0413 26.9778 78.0413 26.1699V25.469C78.0413 24.6612 77.687 23.8864 77.0563 23.3152C76.4257 22.7439 75.5703 22.423 74.6784 22.423H62.8604C62.79 22.423 62.7225 22.451 62.6727 22.5008C62.6229 22.5505 62.5949 22.6181 62.5949 22.6884ZM62.5898 34.8878V42.3301C62.5898 42.4094 62.6213 42.4854 62.6773 42.5415C62.7334 42.5976 62.8094 42.6291 62.8887 42.6291H75.5288C76.0306 42.6291 76.5276 42.5367 76.9913 42.3574C77.4549 42.178 77.8762 41.9151 78.2311 41.5837C78.586 41.2523 78.8675 40.8588 79.0595 40.4258C79.2516 39.9928 79.3504 39.5287 79.3504 39.06V38.158C79.3504 37.6893 79.2516 37.2252 79.0595 36.7922C78.8675 36.3592 78.586 35.9657 78.2311 35.6343C77.8762 35.3029 77.4549 35.04 76.9913 34.8606C76.5276 34.6812 76.0306 34.5889 75.5288 34.5889H62.8887C62.8094 34.5889 62.7334 34.6204 62.6773 34.6765C62.6213 34.7325 62.5898 34.8086 62.5898 34.8878Z" fill="currentColor" /><path d="M157.056 17.0258L149.99 17.0382C149.846 17.0384 149.73 17.1552 149.73 17.2989L149.735 19.9119C149.735 20.0557 149.852 20.172 149.996 20.1718L157.062 20.1594C157.205 20.1592 157.322 20.0425 157.322 19.8987L157.317 17.2857C157.317 17.1419 157.2 17.0256 157.056 17.0258Z" fill="currentColor" /><path d="M109.545 46.4275C109.523 46.3932 109.496 46.3889 109.465 46.4147C106.316 49.1334 101.987 49.1669 97.9227 48.8834C92.7636 48.5252 88.6198 45.7086 89.0579 39.998C89.3208 36.6015 91.2045 34.5271 94.4515 33.7617C96.3293 33.3185 98.2379 33.0926 100.178 33.084C103.242 33.0702 106.306 33.0659 109.37 33.0711C109.457 33.0711 109.504 33.0273 109.509 32.9397C109.792 27.2136 103.847 25.9793 99.7807 28.2238C98.9483 28.6851 98.2783 30.172 97.982 31.1281C97.9715 31.1623 97.9503 31.1923 97.9216 31.2136C97.8928 31.2349 97.858 31.2465 97.8222 31.2466L90.6092 31.3394C90.4924 31.3411 90.4409 31.2844 90.4546 31.1693C91.4416 22.1885 102.353 21.6319 108.939 22.9926C114.779 24.1986 117.356 28.1903 117.34 33.9395C117.328 38.6537 117.315 43.3687 117.302 48.0845C117.301 48.1183 117.287 48.1504 117.263 48.174C117.239 48.1976 117.206 48.2108 117.173 48.2108L109.725 48.2057C109.646 48.2057 109.603 48.1661 109.596 48.0871C109.559 47.6473 109.567 47.2273 109.622 46.827C109.643 46.6775 109.617 46.5444 109.545 46.4275ZM103.363 37.0886C101.75 37.2277 98.871 37.5988 97.6238 38.6683C96.026 40.0392 96.3765 42.7837 98.3453 43.6393C101.371 44.9561 109.179 43.6882 109.537 39.3538C109.585 38.7645 109.576 37.9974 109.509 37.0525C109.502 36.97 109.457 36.928 109.375 36.9262C107.361 36.861 105.357 36.9151 103.363 37.0886Z" fill="currentColor" /><path d="M128.308 29.1309C127.385 31.3059 130.565 31.7749 131.903 32.0661C132.863 32.2757 133.831 32.4389 134.807 32.5557C135.621 32.6562 136.405 32.8855 137.227 33.0195C140.435 33.5375 146.313 34.7796 147.282 38.5781C147.439 39.1965 147.39 40.0031 147.411 40.7298C147.527 44.4768 144.092 46.9352 140.894 47.8681C137.941 48.7288 134.869 48.9401 131.769 48.7597C126.72 48.4633 119.198 46.693 119.093 40.2789C119.093 40.2136 119.125 40.181 119.191 40.181L127.11 40.199C127.173 40.1997 127.234 40.2233 127.281 40.2655C127.329 40.3076 127.359 40.3655 127.367 40.4283C127.661 42.8507 130.181 43.7269 132.385 43.8403C134.67 43.9536 136.497 44.0155 138.252 43.0362C140.136 41.9848 139.373 39.9799 137.68 39.3512C136.395 38.8753 135.076 38.5592 133.722 38.4028C133.222 38.3444 132.725 38.262 132.23 38.1554C131.125 37.9158 129.906 37.8308 128.911 37.6143C125.888 36.9572 121.889 36.1686 120.551 33.0659C119.781 31.2724 120.121 28.6619 121.193 27.0616C124.507 22.1138 131.929 22.0545 137.155 22.7812C142.1 23.4667 146.313 25.6829 146.643 31.2234C146.644 31.2381 146.642 31.2529 146.637 31.2668C146.632 31.2807 146.624 31.2934 146.614 31.3041C146.604 31.3148 146.592 31.3232 146.578 31.3289C146.564 31.3345 146.55 31.3372 146.535 31.3368L138.992 31.2492C138.951 31.2485 138.912 31.2357 138.878 31.2124C138.844 31.189 138.817 31.1561 138.801 31.1177C138.319 29.9478 138.147 28.783 136.835 28.1491C134.962 27.2394 129.264 26.8812 128.308 29.1309Z" fill="currentColor" /><path d="M157.126 22.4282H149.942C149.835 22.4282 149.748 22.5147 149.748 22.6215V47.8913C149.748 47.998 149.835 48.0845 149.942 48.0845H157.126C157.233 48.0845 157.319 47.998 157.319 47.8913V22.6215C157.319 22.5147 157.233 22.4282 157.126 22.4282Z" fill="currentColor" /><path d="M176.229 32.8134C177.1 33.0711 178.069 33.0402 178.922 33.2592C182.38 34.1457 187.06 35.1765 187.643 39.413C187.77 40.3407 187.698 41.2916 187.426 42.2657C185.187 50.3548 169.725 49.6951 164.102 47.0074C161.476 45.755 159.216 43.3429 159.311 40.2892C159.313 40.2084 159.355 40.1681 159.438 40.1681L167.13 40.2042C167.211 40.2041 167.29 40.2287 167.357 40.2748C167.424 40.3208 167.475 40.386 167.504 40.4618C167.937 41.6138 168.277 42.5054 169.565 43.0646C170.818 43.6109 171.939 43.8583 173.379 43.8531C175.041 43.8454 176.337 43.9433 177.93 43.3146C179.278 42.7811 180.205 41.204 178.963 40.0006C177.536 38.6193 174.013 38.4956 172.122 38.0988C171.289 37.9235 170.374 37.8746 169.617 37.7225C166.566 37.1015 162.27 36.3103 160.832 33.2412C160.051 31.5713 160.206 29.2417 161.077 27.6414C164.146 22.0056 172.485 21.9566 177.873 22.8534C182.599 23.6394 186.516 25.8942 186.823 31.1822C186.828 31.2681 186.788 31.311 186.702 31.311L179.152 31.2853C179.06 31.2835 178.999 31.2406 178.969 31.1564C178.877 30.9159 178.802 30.6736 178.742 30.4297C178.25 28.43 176.611 27.6672 174.717 27.528C172.771 27.3837 170.977 27.3786 169.39 28.1671C168.251 28.734 167.872 30.2854 169.05 31.0559C170.227 31.8238 171.975 32.0171 173.356 32.3263C174.186 32.5145 175.245 32.5196 176.229 32.8134Z" fill="currentColor" /></svg>