<svg xmlns="http://www.w3.org/2000/svg" viewBox="0 0 248 66" fill="#fffff"><path d="M216.983 39.7285C216.399 39.7285 215.926 40.2022 215.926 40.7855C215.926 41.3688 216.399 41.8425 216.983 41.8425C217.566 41.8425 218.04 41.3688 218.04 40.7855C218.04 40.2022 217.566 39.7285 216.983 39.7285ZM216.983 41.6749C216.491 41.6749 216.093 41.2748 216.093 40.7855C216.093 40.2938 216.493 39.8961 216.983 39.8961C217.474 39.8961 217.874 40.2961 217.874 40.7855C217.874 41.2749 217.474 41.6749 216.983 41.6749ZM217.327 40.6045C217.327 40.4123 217.19 40.2983 216.989 40.2983H216.652V41.2615H216.817V40.9129H216.998L217.172 41.2615H217.351L217.159 40.8772C217.262 40.8302 217.327 40.7363 217.327 40.6045ZM216.983 40.7631H216.819V40.4436H216.983C217.094 40.4436 217.161 40.4995 217.161 40.6023C217.161 40.7073 217.092 40.7631 216.983 40.7631ZM89.6237 29.0313V26.4748H85.7042V41.6838H89.6237V32.5643C89.6237 30.9129 90.683 30.1017 92.3344 30.1017H94.4797V26.4749H92.6472C91.2126 26.4748 89.9657 27.2234 89.6237 29.0313ZM98.1512 20.4592C96.8104 20.4592 95.7824 21.5185 95.7824 22.8592C95.7824 24.1687 96.8104 25.228 98.1512 25.228C99.4919 25.228 100.52 24.1687 100.52 22.8592C100.52 21.5184 99.4919 20.4592 98.1512 20.4592ZM96.1958 41.6838H100.106V26.4748H96.1958V41.6838ZM118.734 34.0793C118.734 38.4212 115.215 41.9408 110.873 41.9408C109.121 41.9408 107.532 41.3665 106.258 40.3967V46.1487H102.348V26.4748H106.258V27.762C107.532 26.7922 109.121 26.2179 110.873 26.2179C115.215 26.2179 118.734 29.7374 118.734 34.0793ZM114.799 34.0793C114.799 31.7218 112.886 29.8089 110.529 29.8089C108.171 29.8089 106.258 31.7218 106.258 34.0793C106.258 36.4369 108.171 38.3497 110.529 38.3497C112.886 38.3497 114.799 36.4391 114.799 34.0793ZM186.703 32.7453L184.422 32.1196C182.92 31.7285 182.337 31.2681 182.337 30.4749C182.337 29.7017 183.159 29.1609 184.334 29.1609C185.454 29.1609 186.332 29.8938 186.332 30.8324V30.9195H189.937V30.8324C189.937 28.0726 187.686 26.2178 184.334 26.2178C181.016 26.2178 178.605 28.0703 178.605 30.6245C178.605 32.6111 179.921 34.1083 182.218 34.7295L184.404 35.3262C186.064 35.7865 186.681 36.2961 186.681 37.21C186.681 38.1732 185.789 38.8212 184.462 38.8212C183.079 38.8212 182.147 37.9452 182.147 36.6447V36.5575H178.321V36.6447C178.321 39.7642 180.833 41.9452 184.431 41.9452C187.896 41.9452 190.413 39.8156 190.413 36.8838C190.413 35.4447 189.769 33.5632 186.703 32.7453ZM132.607 26.4748H136.518V41.6838H132.607V40.3966C131.333 41.3665 129.744 41.9408 127.993 41.9408C123.651 41.9408 120.131 38.4212 120.131 34.0793C120.131 29.7373 123.651 26.2178 127.993 26.2178C129.744 26.2178 131.333 26.7921 132.607 27.7619V26.4748ZM132.607 34.0793C132.607 31.7196 130.694 29.8089 128.337 29.8089C125.979 29.8089 124.066 31.7218 124.066 34.0793C124.066 36.4369 125.979 38.3497 128.337 38.3497C130.696 38.3497 132.607 36.4391 132.607 34.0793ZM150.638 21.0626H154.549V41.686H150.638V40.3989C149.365 41.3687 147.776 41.943 146.024 41.943C141.682 41.943 138.162 38.4235 138.162 34.0815C138.162 29.7396 141.682 26.22 146.024 26.22C147.776 26.22 149.365 26.7943 150.638 27.7642V21.0626ZM150.638 34.0793C150.638 31.7218 148.725 29.8089 146.368 29.8089C144.01 29.8089 142.098 31.7218 142.098 34.0793C142.098 36.4369 144.008 38.3497 146.368 38.3497C148.725 38.3497 150.638 36.4391 150.638 34.0793ZM172.705 41.6838H176.616V26.4748H172.705V41.6838ZM174.661 20.4592C173.32 20.4592 172.292 21.5185 172.292 22.8592C172.292 24.1687 173.32 25.228 174.661 25.228C176.001 25.228 177.029 24.1687 177.029 22.8592C177.029 21.5184 176.001 20.4592 174.661 20.4592ZM207.315 34.0793C207.315 38.4212 203.796 41.9408 199.454 41.9408C195.112 41.9408 191.593 38.4213 191.593 34.0793C191.593 29.7374 195.112 26.2179 199.454 26.2179C203.796 26.2179 207.315 29.7374 207.315 34.0793ZM203.724 34.0793C203.724 31.7218 201.812 29.8089 199.454 29.8089C197.096 29.8089 195.184 31.7218 195.184 34.0793C195.184 36.4369 197.094 38.3497 199.454 38.3497C201.812 38.3497 203.724 36.4391 203.724 34.0793ZM87.6215 21.0626H72.6204V24.5509H78.1735V41.6838H82.0707V24.5509H87.6238V21.0626H87.6215ZM163.485 37.5184L160.006 26.4749H155.899L161.117 41.6838H165.823L171.072 26.4749H166.965L163.485 37.5184ZM213.045 29.0313V26.4748H209.126V41.6838H213.045V32.5643C213.045 30.9129 214.104 30.1017 215.756 30.1017H217.901V26.4749H216.069C214.634 26.4748 213.389 27.2234 213.045 29.0313Z" fill="#fffff" /><path d="M62.3527 29.0982L64.7661 26.4725H59.4141C56.7348 24.6423 53.499 23.5764 49.9996 23.5764C46.5045 23.5764 43.2778 24.6446 40.6029 26.4725H35.2375L37.651 29.0982C36.1717 30.4479 35.2443 32.3921 35.2443 34.5508C35.2443 38.6245 38.5471 41.9273 42.6209 41.9273C44.5561 41.9273 46.3192 41.1809 47.6354 39.9608L49.9996 42.5351L52.3639 39.9631C53.6801 41.1832 55.4409 41.9273 57.3761 41.9273C61.4499 41.9273 64.7572 38.6245 64.7572 34.5508C64.7593 32.3899 63.832 30.4457 62.3527 29.0982ZM42.623 39.5429C39.8655 39.5429 37.6309 37.3084 37.6309 34.5508C37.6309 31.7932 39.8655 29.5586 42.623 29.5586C45.3806 29.5586 47.6152 31.7932 47.6152 34.5508C47.6152 37.3084 45.3806 39.5429 42.623 39.5429ZM50.0018 34.4055C50.0018 31.1206 47.613 28.3005 44.4599 27.096C46.1649 26.3831 48.0353 25.9876 49.9996 25.9876C51.9638 25.9876 53.8364 26.3831 55.5415 27.096C52.3907 28.3027 50.0018 31.1206 50.0018 34.4055ZM57.3784 39.5429C54.6208 39.5429 52.3862 37.3084 52.3862 34.5508C52.3862 31.7932 54.6208 29.5586 57.3784 29.5586C60.136 29.5586 62.3705 31.7932 62.3705 34.5508C62.3705 37.3084 60.1359 39.5429 57.3784 39.5429ZM57.3784 31.9317C55.9326 31.9317 54.7616 33.1027 54.7616 34.5485C54.7616 35.9943 55.9326 37.1653 57.3784 37.1653C58.8242 37.1653 59.9951 35.9943 59.9951 34.5485C59.9951 33.1049 58.8242 31.9317 57.3784 31.9317ZM45.2398 34.5508C45.2398 35.9966 44.0688 37.1675 42.623 37.1675C41.1773 37.1675 40.0063 35.9966 40.0063 34.5508C40.0063 33.1049 41.1773 31.934 42.623 31.934C44.0688 31.9317 45.2398 33.1049 45.2398 34.5508Z" fill="#337BFF" /></svg>