<svg xmlns="http://www.w3.org/2000/svg" width="248" height="66" viewBox="0 0 248 66" fill="none"><path d="M50.6179 22.4755C50.6179 19.1146 47 20.7557 47 19.576C47 19.2352 47.173 19.0516 47.8494 19.0516C49.9835 19.0516 52.0021 19.1408 53.6905 19.1408C58.9338 19.1408 62.7352 19.1041 67.7426 19.0569L69.6879 25.7841C69.6923 25.8564 69.6768 25.9286 69.6428 25.9926C69.6089 26.0566 69.5579 26.11 69.4955 26.1469C69.4331 26.1838 69.3618 26.2028 69.2893 26.2016C69.2168 26.2005 69.1461 26.1794 69.0849 26.1406C68.6916 25.7945 66.3374 20.0374 59.0596 20.0374H56.7578V32.1495H57.8065C60.7532 32.1495 62.8925 29.9682 63.0498 26.9376C63.0865 26.0934 63.2124 25.8889 63.6371 25.8889C63.7049 25.8961 63.7704 25.9176 63.8293 25.9519C63.8882 25.9863 63.9392 26.0328 63.9788 26.0883C64.0185 26.1437 64.0459 26.207 64.0593 26.2739C64.0727 26.3408 64.0717 26.4097 64.0565 26.4762V39.3433C64.0726 39.4098 64.0742 39.4791 64.0612 39.5463C64.0482 39.6135 64.0208 39.6771 63.981 39.7328C63.9412 39.7885 63.8899 39.835 63.8306 39.8691C63.7712 39.9032 63.7052 39.9242 63.6371 39.9305C63.2176 39.9305 63.1127 39.7261 63.0498 38.8819C62.8768 35.1434 60.7375 33.1614 57.8065 33.1614H56.7578V44.2668C56.7578 47.6277 60.3757 45.9918 60.3757 47.1716C60.3757 47.5071 60.2132 47.6959 59.5315 47.6959C57.387 47.6959 55.3683 47.6068 53.6905 47.6068C47.173 47.7221 47 47.5071 47 47.1716C47 45.9918 50.6179 47.633 50.6179 44.2668V22.4755Z" fill="currentColor" /><path d="M76.6886 44.2667C76.6886 47.6277 80.144 46.1176 80.144 47.2082C80.1612 47.2806 80.1597 47.3561 80.1394 47.4277C80.1192 47.4992 80.081 47.5644 80.0284 47.617C79.9758 47.6696 79.9106 47.7078 79.8391 47.728C79.7675 47.7483 79.692 47.7498 79.6196 47.7326C78.2774 47.7326 76.2587 47.6434 74.025 47.6434C71.7914 47.6434 69.7832 47.7326 68.4356 47.7326C68.3633 47.7498 68.2878 47.7483 68.2162 47.728C68.1446 47.7078 68.0795 47.6696 68.0269 47.617C67.9743 47.5644 67.9361 47.4992 67.9158 47.4277C67.8956 47.3561 67.894 47.2806 67.9113 47.2082C67.9113 46.1124 71.3667 47.6277 71.3667 44.2667V33.8797C71.3667 30.9749 68.0004 31.6041 68.0004 30.7337C68.0004 29.8633 69.6835 30.4348 76.6624 28.2064V44.2667H76.6886Z" fill="currentColor" /><path d="M89.7132 33.6647H89.7919C91.3911 29.8004 93.2 28.1959 95.4232 28.1959C97.3213 28.1959 98.7999 29.2918 98.7999 31.1846C98.7999 32.9044 97.9138 34.0789 96.1782 34.0789C93.9079 34.0789 94.3273 31.7299 92.8592 31.7299C90.9664 31.7299 89.7132 34.9336 89.7132 36.1867V44.2667C89.7132 47.6277 92.6547 46.1176 92.6547 47.2082C92.6736 47.2807 92.6731 47.3569 92.6535 47.4292C92.6338 47.5016 92.5956 47.5675 92.5426 47.6205C92.4896 47.6734 92.4237 47.7117 92.3514 47.7313C92.2791 47.751 92.2029 47.7514 92.1304 47.7325C91.045 47.7325 89.2675 47.6434 87.0391 47.6434C84.8107 47.6434 83.0437 47.7325 81.9478 47.7325C81.8753 47.7514 81.7991 47.751 81.7268 47.7313C81.6545 47.7117 81.5886 47.6734 81.5356 47.6205C81.4826 47.5675 81.4444 47.5016 81.4247 47.4292C81.4051 47.3569 81.4046 47.2807 81.4235 47.2082C81.4235 46.1124 84.365 47.6277 84.365 44.2667V33.7014C84.365 30.8019 81.4235 31.2633 81.4235 30.5554C81.4235 29.7532 82.6924 30.2618 89.6713 28.1959V33.6647H89.7132Z" fill="currentColor" /><path d="M100.248 40.5282C100.24 40.4801 100.242 40.4306 100.255 40.3834C100.268 40.3363 100.292 40.2927 100.324 40.2559C100.356 40.2191 100.396 40.19 100.441 40.1709C100.486 40.1518 100.535 40.1431 100.584 40.1455C100.956 40.1455 100.867 40.6121 101.549 42.0435C102.645 44.3978 104.328 47.2135 107.773 47.2135C110.394 47.2135 111.605 45.9446 111.605 44.0675C111.605 39.3013 100.332 41.1207 100.332 33.8377C100.332 30.8962 103.027 28.2064 107.605 28.2064C110.053 28.2064 112.654 29.0086 113.897 29.8056V34.6452C113.902 34.6819 113.899 34.7193 113.889 34.7548C113.878 34.7904 113.86 34.8232 113.836 34.8511C113.811 34.879 113.781 34.9013 113.747 34.9164C113.714 34.9316 113.677 34.9392 113.64 34.9388C113.304 34.9388 113.268 34.1733 112.502 32.7996C111.537 31.0221 110.106 28.9667 107.08 28.9667C105.355 28.9667 104.134 29.8056 104.134 31.5884C104.134 35.783 115.407 34.1104 115.407 41.1836C115.407 45.6405 112.035 48 107.374 48C104.954 47.9855 102.552 47.5746 100.264 46.7835V40.5282H100.248Z" fill="currentColor" /><path d="M130.486 28.5316L129.474 30.5555H124.681V42.3267C124.681 44.9484 125.814 45.9446 127.371 45.9446C127.934 45.9582 128.491 45.8362 128.997 45.5889C129.503 45.3415 129.941 44.9762 130.276 44.5237C130.648 44.1042 130.69 43.6795 130.942 43.6795C130.984 43.68 131.026 43.6893 131.064 43.7069C131.103 43.7244 131.137 43.7498 131.165 43.7814C131.193 43.8129 131.215 43.85 131.228 43.8903C131.241 43.9305 131.245 43.973 131.241 44.0151C131.241 44.6443 129.558 47.9738 124.886 47.9738C121.215 47.9738 119.375 45.8765 119.375 42.5837V30.5555H116.753C119.966 28.0278 122.635 24.8785 124.603 21.2958H124.687V28.5316H130.491H130.486Z" fill="currentColor" /><path d="M140.468 44.2668C140.468 47.6278 143.913 46.1177 143.913 47.2083C143.932 47.2808 143.932 47.357 143.912 47.4293C143.892 47.5016 143.854 47.5676 143.801 47.6205C143.748 47.6735 143.682 47.7117 143.61 47.7314C143.538 47.7511 143.461 47.7515 143.389 47.7326C142.036 47.7326 140.012 47.6435 137.789 47.6435C135.566 47.6435 133.542 47.7326 132.194 47.7326C132.122 47.7515 132.046 47.7511 131.973 47.7314C131.901 47.7117 131.835 47.6735 131.782 47.6205C131.729 47.5676 131.691 47.5016 131.671 47.4293C131.652 47.357 131.651 47.2808 131.67 47.2083C131.67 46.1124 135.125 47.6278 135.125 44.2668V22.6014C135.125 19.7018 131.754 20.331 131.754 19.4554C131.754 18.6584 133.432 19.1618 140.421 16.9333V44.2668H140.468Z" fill="currentColor" /><path d="M149.487 37.0363C149.565 42.1643 152.842 44.6863 156.34 44.6863C158.904 44.6863 160.288 43.8054 161.473 42.5051C162.354 41.5351 162.312 40.8587 162.695 40.8587C162.767 40.8666 162.833 40.9021 162.88 40.9577C162.927 41.0134 162.951 41.0849 162.946 41.1575C162.946 42.4212 161.012 47.9739 154.069 47.9739C148.396 47.9739 144.694 43.9313 144.694 37.9486C144.694 32.4012 148.643 28.2013 154.069 28.2013C158.788 28.2013 162.784 31.2267 162.946 37.0363H149.487ZM157.876 36.0191C157.787 30.4717 156.361 28.9563 154.006 28.9563C151.311 28.9563 149.544 31.578 149.466 36.0191H157.855H157.876Z" fill="currentColor" /><path d="M182.19 45.0217C182.19 45.8187 182.568 46.1963 183.239 46.1963C183.876 46.1308 184.467 45.8342 184.901 45.3626C185.153 45.1528 185.32 44.7753 185.572 44.7753C185.614 44.7757 185.656 44.785 185.694 44.8026C185.732 44.8202 185.766 44.8457 185.794 44.8774C185.822 44.909 185.842 44.9462 185.855 44.9865C185.867 45.0267 185.871 45.0691 185.866 45.1109C185.866 45.7453 183.595 47.979 180.816 47.979C178.415 47.979 177.497 47.0876 176.868 45.027C174.718 46.7049 172.495 47.979 169.716 47.979C167.525 47.979 165.427 47.0509 165.427 44.1042C165.427 41.5402 166.77 40.1088 172.112 37.9537L176.868 36.0662V31.2685C176.868 29.8843 176.443 29.1292 175.227 29.1292C174.334 29.104 173.463 29.4122 172.785 29.9937C172.106 30.5753 171.668 31.3886 171.557 32.2752C171.059 35.3478 170.34 36.5223 168.154 36.5223C166.895 36.5223 166.004 35.5575 166.004 34.1628C166.004 31.1374 172.144 28.1959 177.067 28.1959C180.35 28.1959 182.159 29.6273 182.159 33.5756V45.0217H182.19ZM176.889 36.9103C172.768 38.5095 171.001 39.7679 171.001 42.4211C171.001 44.8592 171.84 45.6981 173.271 45.6981C174.488 45.6981 175.919 44.8959 176.889 44.015V36.9103Z" fill="currentColor" /><path d="M198.534 30.5555H194.491V44.2668C194.491 47.6277 197.427 46.1176 197.427 47.2083C197.446 47.2808 197.446 47.357 197.426 47.4293C197.407 47.5016 197.368 47.5675 197.315 47.6205C197.262 47.6735 197.196 47.7117 197.124 47.7314C197.052 47.751 196.976 47.7515 196.903 47.7326C195.823 47.7326 194.045 47.6435 191.812 47.6435C189.578 47.6435 187.822 47.7326 186.731 47.7326C186.659 47.7499 186.583 47.7483 186.512 47.7281C186.44 47.7078 186.375 47.6696 186.322 47.617C186.27 47.5644 186.231 47.4993 186.211 47.4277C186.191 47.3561 186.189 47.2806 186.207 47.2083C186.207 46.1124 189.153 47.6277 189.153 44.2668V30.5555H186.532C188.97 28.4581 189.641 25.7106 190.574 22.2238C192.111 16.755 194.009 16 196.363 16C198.639 16 200.406 17.94 200.406 19.7437C200.406 21.5474 199.137 22.6485 197.784 22.6485C196.263 22.6485 195.335 21.6366 195.335 20.0793C195.335 18.0187 195.089 17.5153 194.502 17.5153C193.825 17.5153 193.07 18.0397 193.07 20.2523C193.07 22.2238 194.035 25.7998 194.418 28.5315H199.137L198.534 30.5555Z" fill="currentColor" /></svg>