<svg xmlns="http://www.w3.org/2000/svg" width="248" height="66" viewBox="0 0 248 66" fill="currentColor"><path d="M87.2136 37.1055L87.712 42.1522H83.7768L83.2784 37.6285C83.2084 37.0009 82.9635 36.4953 82.5438 36.1118C82.1415 35.7109 81.6343 35.5104 81.0222 35.5104H77.4542L77.4542 42.1662H73.4927L73.4805 23.8357H81.2197C83.1436 23.8357 84.6688 24.3797 85.7707 25.4431C86.8725 26.5065 87.4235 27.8924 87.4235 29.6008C87.4235 31.344 86.6539 32.6166 85.1148 33.4185C86.3566 34.2727 87.0562 35.5017 87.2136 37.1055ZM77.4542 27.1166V32.1372H81.0222C81.8792 32.1372 82.5263 31.8932 82.9635 31.4051C83.4008 30.9169 83.6194 30.3155 83.6194 29.6008C83.6194 28.8861 83.4008 28.2934 82.9635 27.8227C82.5263 27.352 81.8792 27.1166 81.0222 27.1166H77.4542Z" fill="currentColor" /><path d="M98.5955 37.4719H102.163C101.901 38.8839 101.193 40.0171 100.038 40.8712C98.8841 41.7255 97.4936 42.1525 95.8671 42.1525C93.7508 42.1525 92.0893 41.4727 90.8824 40.1129C89.6757 38.7358 89.0723 37.1407 89.0723 35.3277C89.0723 33.4973 89.632 31.9109 90.7513 30.5686C91.8881 29.2263 93.5059 28.5552 95.6047 28.5552C97.7559 28.5552 99.3825 29.2002 100.484 30.4902C101.586 31.7802 102.137 33.2794 102.137 34.9878C102.137 35.3888 102.12 35.781 102.085 36.1645H92.5877C92.7276 37.1058 93.0774 37.8467 93.6371 38.3871C94.2143 38.9101 94.9576 39.1716 95.8671 39.1716C97.3887 39.1716 98.2981 38.6051 98.5955 37.4719ZM95.6047 31.2224C93.9257 31.2224 92.9375 32.1027 92.6402 33.8634H98.4905C98.4381 33.0964 98.1582 32.4688 97.651 31.9807C97.1438 31.4751 96.4617 31.2224 95.6047 31.2224Z" fill="currentColor" /><path d="M104.521 42.1526V23.8353H108.955L114.307 36.6197L119.685 23.833H124.093V42.1526H120.42V30.9716L115.776 42.1526H112.864L108.194 30.9716V42.1526H104.521Z" fill="currentColor" /><path d="M132.615 28.5352C134.294 28.5352 135.676 28.9884 136.76 29.8949C137.844 30.7839 138.386 31.9694 138.386 33.4511V42.137H134.766V40.0929C134.539 40.703 134.084 41.1999 133.402 41.5834C132.737 41.9494 131.95 42.1551 131.041 42.1551C129.764 42.1551 128.723 41.7577 127.918 41.0081C127.114 40.2585 126.712 39.3172 126.712 38.184C126.712 36.894 127.149 35.8829 128.024 35.1508C128.916 34.4012 130.088 34.0264 131.539 34.0264H133.769C134.084 34.0264 134.328 33.9392 134.504 33.7649C134.679 33.5731 134.766 33.3378 134.766 33.0589C134.766 32.501 134.556 32.0565 134.136 31.7253C133.717 31.3766 133.14 31.2023 132.405 31.2023C131.653 31.2023 131.058 31.4028 130.621 31.8037C130.201 32.2047 129.974 32.7015 129.939 33.2942H126.686C126.773 31.917 127.341 30.7839 128.391 29.8949C129.458 28.9884 130.866 28.5352 132.615 28.5352ZM131.959 39.4915C132.833 39.4915 133.515 39.2126 134.005 38.6547C134.512 38.0969 134.766 37.3822 134.766 36.5105V36.3275H132.09C131.53 36.3275 131.076 36.4844 130.726 36.7982C130.376 37.1119 130.201 37.5216 130.201 38.0271C130.201 38.463 130.367 38.8203 130.699 39.0992C131.032 39.3607 131.452 39.4915 131.959 39.4915Z" fill="currentColor" /><path d="M158.763 31.9914H155.222V37.1951C155.222 38.4502 155.834 39.0778 157.058 39.0778H158.763V42.1574H156.586C155.047 42.1574 153.823 41.7188 152.913 40.882C152.004 40.0453 151.549 38.8686 151.549 37.352V31.9914H145.961V37.1951C145.961 38.4502 146.582 39.0778 147.824 39.0778H149.503V42.1574H147.325C145.786 42.1574 144.562 41.7188 143.652 40.882C142.761 40.0453 142.315 38.8686 142.315 37.352V31.9914H139.77V28.9582H142.315V25.062H145.961V28.9582H151.549V25.062H155.222V28.9582H158.763V31.9914Z" fill="currentColor" /><path d="M169.33 37.4746H172.898C172.635 38.8866 171.927 40.0197 170.772 40.8739C169.618 41.7281 168.228 42.1552 166.601 42.1552C164.485 42.1552 162.823 41.4753 161.617 40.1156C160.41 38.7384 159.807 37.1434 159.807 35.3304C159.807 33.5 160.366 31.9136 161.486 30.5713C162.622 29.229 164.24 28.5579 166.339 28.5579C168.49 28.5579 170.117 29.2028 171.219 30.4929C172.32 31.7829 172.871 33.2821 172.871 34.9904C172.871 35.3914 172.854 35.7836 172.819 36.1671H163.322C163.462 37.1085 163.812 37.8494 164.371 38.3898C164.949 38.9127 165.692 39.1743 166.601 39.1743C168.123 39.1743 169.032 38.6077 169.33 37.4746ZM166.339 31.225C164.66 31.225 163.672 32.1054 163.374 33.866H169.225C169.172 33.099 168.892 32.4714 168.385 31.9834C167.878 31.4778 167.196 31.225 166.339 31.225Z" fill="currentColor" /><path d="M183.36 32.0096H181.183C180.309 32.0096 179.653 32.3408 179.216 33.0033C178.778 33.6657 178.559 34.5809 178.559 35.7489V42.159H174.887V28.9763H178.559V31.1728C178.909 30.3709 179.338 29.8044 179.845 29.4731C180.37 29.1419 181.043 28.9763 181.865 28.9763H183.36V32.0096Z" fill="currentColor" /><path fill-rule="evenodd" clip-rule="evenodd" d="M73.9119 14.6582H98.267C101.713 14.6582 104.506 17.4401 104.506 20.8718H108.179C108.179 15.4198 103.741 11 98.267 11H73.9119C68.4377 11 64 15.4198 64 20.8718V45.1282C64 50.5802 68.4377 55 73.9119 55H98.267C103.741 55 108.179 50.5802 108.179 45.1282H104.506C104.506 48.5599 101.713 51.3418 98.267 51.3418H73.9119C70.4663 51.3418 67.6731 48.5599 67.6731 45.1282V20.8718C67.6731 17.4401 70.4663 14.6582 73.9119 14.6582Z" fill="currentColor" /></svg>