<svg xmlns="http://www.w3.org/2000/svg" width="248" height="66" viewBox="0 0 248 66" fill="currentColor"><path d="M83.4255 28.5157C80.8898 28.5157 79.9262 29.7284 79.6219 31.1684L77.8215 39.8337C77.7455 40.2631 77.3144 40.5916 76.8833 40.5916H75.0829C74.6519 40.5916 74.373 40.2631 74.449 39.8337L77.1876 26.1916C77.2637 25.7621 77.6948 25.4337 78.1258 25.4337H79.9008C80.3319 25.4337 80.6109 25.7621 80.5095 26.1916L80.408 26.6968C80.3066 27.101 80.4841 27.2021 80.763 26.8737C80.763 26.8737 82.5127 25.2568 84.6934 25.2568C85.1245 25.2568 84.947 25.6105 84.947 25.6105L84.1102 28.1368C84.1102 28.1368 83.9834 28.5157 83.4255 28.5157Z" fill="currentColor" /><path d="M90.0945 40.8693C84.0847 40.8693 84.2369 34.8061 84.744 32.5325C85.1497 30.7388 86.8487 25.1304 92.1991 25.1304C99.071 25.1304 96.941 33.2398 96.941 33.2398C96.8142 33.6441 96.6114 33.9725 96.0027 33.9725H88.0405C87.6348 33.9725 87.5841 34.1998 87.5587 34.3514C87.4827 34.9577 87.4065 36.2209 88.1673 37.2819C88.9026 38.3177 90.7791 39.1261 94.4052 37.0545C94.6842 36.903 94.8363 36.9535 94.9377 37.1809C94.9884 37.3325 95.2927 38.3177 95.2927 38.3177C95.4195 38.7219 95.242 39.2525 94.887 39.4798C94.887 39.4798 94.1517 39.9851 93.2134 40.3135C92.3259 40.7177 91.2609 40.8693 90.0945 40.8693ZM91.768 27.8841C91.0581 27.8841 90.3987 28.2125 89.8155 28.8945C89.2577 29.5009 88.8519 30.3345 88.573 31.2693C88.5477 31.3451 88.497 31.5219 88.7505 31.5219C88.9788 31.5219 93.5685 31.5219 93.5685 31.5219C93.822 31.5219 93.8474 31.3451 93.8727 31.2441C93.8981 31.143 93.8981 30.8145 93.9234 30.3851C93.9234 30.3851 93.9488 29.3745 93.6192 28.7682C93.2641 28.1872 92.6556 27.8841 91.768 27.8841Z" fill="currentColor" /><path d="M104.068 38.141C104.778 38.141 105.437 37.8884 106.045 37.4084C106.578 36.9789 106.832 36.5495 107.034 35.9431C107.161 35.5642 107.516 35.5895 107.516 35.5895C107.516 35.5895 109.646 35.5895 109.773 35.5895C110.001 35.5895 110.128 35.7915 110.052 36.0189C110.027 36.1452 109.976 36.2715 109.925 36.3979C109.925 36.3979 109.241 38.3936 107.973 39.3789C106.705 40.3642 105.259 40.8695 103.637 40.8695C101.608 40.8695 100.137 40.1368 99.1989 38.6968C97.4239 35.9179 98.0072 30.5368 100.974 27.2526C102.267 25.8126 103.915 25.1558 106.147 25.1558C107.871 25.1558 109.088 25.6862 110.027 26.7473C110.889 27.7326 111.218 28.9705 111.016 30.4105C110.99 30.5368 110.939 30.8399 110.508 30.8399H108.429C108.099 30.8399 107.846 30.7389 107.846 30.3095C107.846 30.3095 107.846 29.2484 107.465 28.6926C107.085 28.1368 106.477 27.8589 105.69 27.8589C104.575 27.8589 103.738 28.3389 103.053 29.2736C101.811 31.0168 101.101 34.8315 101.785 36.7768C102.166 37.7115 102.901 38.141 104.068 38.141Z" fill="currentColor" /><path d="M120.115 40.5661C119.684 40.5661 119.405 40.2377 119.481 39.8335L119.583 39.1009C119.583 39.1009 119.557 38.7977 119.304 39.0251C118.923 39.3535 118.213 39.9598 117.63 40.263C116.869 40.6672 116.083 40.8693 115.297 40.8693C113.953 40.8693 112.939 40.4398 112.28 39.6061C111.595 38.7725 111.392 37.6609 111.671 36.2967C111.975 34.7304 112.736 33.5682 113.953 32.8104C115.17 32.0525 116.768 31.6482 118.771 31.6482H120.217C120.901 31.6482 121.003 31.5219 121.129 30.9914C121.205 30.6377 121.282 29.9809 121.307 29.5514C121.307 29.5514 121.357 28.8441 121.028 28.4145C120.698 27.9851 120.14 27.783 119.354 27.783C117.325 27.783 117.022 28.9451 116.742 29.4251C116.59 29.703 116.489 29.7788 116.083 29.7788C115.804 29.7788 116.007 29.7788 114.181 29.7788C113.75 29.7788 113.573 29.3998 113.75 28.8945C113.75 28.8945 114.333 27.3535 115.576 26.4693C116.818 25.5851 118.315 25.1304 120.09 25.1304C121.636 25.1304 122.879 25.5851 123.766 26.4945C124.654 27.4041 124.958 28.6925 124.629 30.3345L122.905 39.7072C122.828 40.1367 122.422 40.5156 121.991 40.5409H120.115V40.5661ZM116.59 38.1409C117.199 38.1409 117.833 37.9641 118.492 37.6356C119.126 37.3072 119.734 37.1304 120.013 36.1451L120.394 34.5282C120.496 34.023 120.622 33.7704 120.191 33.7704H119.05C118.619 33.7704 117.934 33.8209 117.503 33.8967C117.503 33.8967 116.768 34.023 116.159 34.503C115.551 35.0082 115.17 35.5641 115.043 36.2209C114.917 36.8272 114.967 37.3072 115.221 37.6356C115.5 37.9893 115.931 38.1409 116.59 38.1409Z" fill="currentColor" /><path d="M137.715 27.1009C138.83 25.7872 140.326 25.1304 142.127 25.1304C142.913 25.1304 143.598 25.3072 144.231 25.6609C144.738 25.9388 145.144 26.343 145.524 26.823C145.778 27.1261 145.854 26.7725 145.854 26.7725L145.981 26.1661C146.082 25.7619 146.514 25.4082 146.919 25.4082H148.44C148.872 25.4082 149.151 25.7619 149.075 26.1661L146.412 39.4798C144.942 45.8967 141.29 46.8567 138.399 46.6798C137.765 46.6293 137.03 46.5788 136.244 46.3767C135.585 46.1998 135.229 46.0988 134.722 45.8209C134.621 45.7704 134.215 45.543 134.52 44.8861C134.697 44.5325 135.153 43.5725 135.153 43.5725C135.331 43.1935 135.762 43.0419 136.143 43.2441C136.143 43.2441 136.573 43.4209 137.182 43.5977C137.79 43.7493 138.297 43.7998 138.957 43.7998C139.971 43.7998 140.833 43.4714 141.518 42.8398C142.203 42.2082 142.659 41.3241 142.887 40.2377L142.913 40.1619C142.989 39.7577 142.786 39.6061 142.456 39.8841C142.456 39.8841 141.975 40.2377 141.391 40.4904C140.783 40.743 140.148 40.8693 139.489 40.8693C137.867 40.8693 136.624 40.1367 135.787 38.6461C134.95 37.1809 134.799 35.0588 135.229 32.9114C135.229 32.9367 135.939 29.1725 137.715 27.1009ZM138.576 32.9367C138.551 33.0882 138.475 33.5682 138.45 33.9977C138.45 33.9977 138.273 35.8925 138.627 36.7767C138.982 37.6609 139.718 38.0904 140.783 38.0904C141.366 38.0904 141.949 37.9388 142.431 37.6104C142.913 37.2819 143.496 36.8777 143.775 35.7914L144.891 30.2082C145.093 29.1472 144.51 28.5661 144.105 28.2882C143.673 28.0104 143.166 27.8841 142.533 27.8841C141.543 27.8841 140.732 28.3388 140.047 29.2482C139.388 30.2082 138.881 31.4209 138.576 32.9367Z" fill="currentColor" /><path d="M175.245 39.1012C174.18 40.3138 172.709 40.8696 170.959 40.8696C170.198 40.8696 169.514 40.718 168.905 40.4401C168.449 40.2127 168.043 39.9349 167.713 39.5812C167.612 39.4549 167.333 39.4801 167.282 39.8086C167.206 40.137 166.116 45.6696 166.116 45.6696C166.04 46.099 165.609 46.4275 165.177 46.4275H163.377C162.946 46.4275 162.667 46.0738 162.743 45.6696L166.648 26.217C166.724 25.7875 167.155 25.459 167.586 25.459H169.184C169.615 25.459 169.894 25.7875 169.843 26.1917C169.767 26.5959 169.97 26.697 170.3 26.419C170.3 26.419 170.857 25.939 171.492 25.6359C172.151 25.3327 172.836 25.1812 173.571 25.1812C175.219 25.1812 176.436 25.9896 177.222 27.5812C178.008 29.198 178.11 31.4717 177.654 33.8212C177.628 33.7959 176.994 37.1054 175.245 39.1012ZM174.281 33.7959C174.306 33.6443 174.382 33.1643 174.408 32.7349C174.408 32.7349 174.636 30.537 174.281 29.5012C173.925 28.4654 173.216 27.9601 172.125 27.9601C170.528 27.9601 169.437 29.1222 169.184 30.1327L168.043 35.817C167.865 37.0043 168.347 37.5854 168.778 37.8127C169.209 38.0654 169.742 38.1664 170.427 38.1664C171.415 38.1664 172.227 37.7875 172.886 37.0043C173.545 36.1959 174.002 35.1349 174.281 33.7959Z" fill="currentColor" /><path d="M198.624 34.2759C198.675 34.7054 198.852 34.7307 199.055 34.3517L203.239 26.1159C203.442 25.737 203.949 25.4338 204.38 25.4338H206.51C206.941 25.4338 207.119 25.737 206.916 26.1159L198.32 42.2086C198.117 42.5875 197.762 43.1938 197.534 43.5475C197.534 43.5475 196.671 44.8612 195.81 45.5938C194.339 46.8823 192.513 46.7812 191.473 46.579C190.89 46.4527 191.118 45.9727 191.118 45.9727L191.6 44.5327C191.727 44.1286 192.209 43.8254 192.615 43.8759C192.615 43.8759 192.665 43.8759 192.792 43.8759C193.299 43.8759 193.806 43.6486 194.262 43.1938C194.719 42.739 195.099 42.259 195.353 41.779L195.759 41.097C196.139 40.2886 196.089 40.0864 196.038 39.657L194.136 26.217C194.085 25.7875 194.389 25.459 194.795 25.459H196.899C197.331 25.459 197.711 25.8127 197.762 26.217L198.624 34.2759Z" fill="currentColor" /><path d="M134.52 28.5157C131.985 28.5157 131.021 29.7284 130.716 31.1684L128.916 39.8337C128.84 40.2631 128.409 40.5916 127.978 40.5916H126.177C125.747 40.5916 125.468 40.2631 125.544 39.8337L128.283 26.1916C128.358 25.7621 128.79 25.4337 129.221 25.4337H130.995C131.427 25.4337 131.706 25.7621 131.604 26.1916L131.502 26.6968C131.401 27.101 131.579 27.2021 131.858 26.8737C131.858 26.8737 133.608 25.2568 135.788 25.2568C136.219 25.2568 136.041 25.6105 136.041 25.6105L135.205 28.1368C135.205 28.1368 135.103 28.5157 134.52 28.5157Z" fill="currentColor" /><path d="M157.924 40.5661C157.494 40.5661 157.215 40.2377 157.265 39.8335L157.366 39.1009C157.366 39.1009 157.341 38.7977 157.088 39.0251C156.707 39.3535 155.997 39.9598 155.414 40.263C154.653 40.6672 153.867 40.8693 153.081 40.8693C151.737 40.8693 150.723 40.4398 150.063 39.6061C149.379 38.7725 149.176 37.6609 149.455 36.2967C149.759 34.7304 150.52 33.5682 151.737 32.8104C152.955 32.0525 154.552 31.6482 156.555 31.6482H158.001C158.685 31.6482 158.787 31.5219 158.913 30.9914C158.989 30.6377 159.066 29.9809 159.091 29.5514C159.091 29.5514 159.141 28.8441 158.812 28.4145C158.482 27.9851 157.924 27.783 157.138 27.783C155.109 27.783 154.806 28.9451 154.527 29.4251C154.374 29.703 154.273 29.7788 153.867 29.7788C153.588 29.7788 153.791 29.7788 151.965 29.7788C151.534 29.7788 151.357 29.3998 151.534 28.8945C151.534 28.8945 152.118 27.3535 153.36 26.4693C154.602 25.5851 156.099 25.1304 157.874 25.1304C159.42 25.1304 160.663 25.5851 161.55 26.4945C162.438 27.4041 162.742 28.6925 162.413 30.3345L160.689 39.7072C160.612 40.1367 160.206 40.5156 159.775 40.5409H157.924V40.5661ZM154.4 38.1409C155.008 38.1409 155.642 37.9641 156.301 37.6356C156.936 37.3072 157.544 37.1304 157.823 36.1451L158.203 34.5282C158.304 34.023 158.432 33.7704 158.001 33.7704H156.859C156.429 33.7704 155.744 33.8209 155.313 33.8967C155.313 33.8967 154.577 34.023 153.969 34.503C153.36 35.0082 152.979 35.5641 152.853 36.2209C152.726 36.8272 152.777 37.3072 153.03 37.6356C153.309 37.9893 153.741 38.1409 154.4 38.1409Z" fill="currentColor" /><path d="M187.442 40.5661C187.011 40.5661 186.732 40.2377 186.808 39.8335L186.909 39.1009C186.909 39.1009 186.884 38.7977 186.63 39.0251C186.25 39.3535 185.54 39.9598 184.957 40.263C184.196 40.6672 183.41 40.8693 182.624 40.8693C181.28 40.8693 180.266 40.4398 179.607 39.6061C178.922 38.7725 178.719 37.6609 178.998 36.2967C179.302 34.7304 180.063 33.5682 181.28 32.8104C182.497 32.0525 184.095 31.6482 186.098 31.6482H187.543C188.228 31.6482 188.33 31.5219 188.457 30.9914C188.532 30.6377 188.608 29.9809 188.634 29.5514C188.634 29.5514 188.685 28.8441 188.355 28.4145C188.025 27.9851 187.467 27.783 186.681 27.783C184.653 27.783 184.348 28.9451 184.069 29.4251C183.918 29.703 183.816 29.7788 183.41 29.7788C183.131 29.7788 183.334 29.7788 181.509 29.7788C181.077 29.7788 180.9 29.3998 181.077 28.8945C181.077 28.8945 181.66 27.3535 182.903 26.4693C184.146 25.5851 185.642 25.1304 187.416 25.1304C188.964 25.1304 190.206 25.5851 191.094 26.4945C191.981 27.4041 192.285 28.6925 191.955 30.3345L190.231 39.7072C190.155 40.1367 189.75 40.5156 189.318 40.5409H187.442V40.5661ZM183.918 38.1409C184.526 38.1409 185.16 37.9641 185.819 37.6356C186.478 37.3072 187.062 37.1304 187.341 36.1451L187.721 34.5282C187.822 34.023 187.949 33.7704 187.518 33.7704H186.377C185.946 33.7704 185.262 33.8209 184.83 33.8967C184.83 33.8967 184.095 34.023 183.486 34.503C182.877 35.0082 182.497 35.5641 182.37 36.2209C182.244 36.8272 182.295 37.3072 182.574 37.6356C182.802 37.9893 183.258 38.1409 183.918 38.1409Z" fill="currentColor" /><path d="M61.7964 26.5706C61.2132 25.9896 60.5032 25.6106 59.641 25.3833C59.4889 25.3074 59.3875 25.1811 59.4382 24.9538L59.5649 24.2464C59.641 23.817 59.362 23.4885 58.931 23.4885H57.9674C57.5363 23.4885 57.1306 23.8422 57.0545 24.2464L56.9278 24.878C56.8771 25.1559 56.6995 25.257 56.4713 25.3327C55.457 25.5096 54.5442 25.9138 53.7835 26.4948C52.6423 27.3538 51.983 28.4401 51.7802 29.7538C51.5773 30.9411 51.8563 31.9011 52.617 32.6085C53.3777 33.3159 54.5695 33.8464 56.1924 34.2254C57.2574 34.478 57.9674 34.7811 58.297 35.1095C58.6267 35.438 58.7535 35.8927 58.6774 36.398C58.576 36.9538 58.297 37.4085 57.8152 37.737C57.3335 38.0654 56.6995 38.2422 55.9642 38.2422C55.2034 38.2422 54.5949 38.0401 54.1131 37.6359C53.7835 37.358 53.6059 36.9538 53.5552 36.4485C53.5045 36.2717 53.4284 35.7664 52.8959 35.7664C52.3381 35.7664 51.6027 35.7664 51.0195 35.7664C50.4362 35.7664 50.3348 36.2464 50.3348 36.4485C50.2841 37.4843 50.6391 38.419 51.4252 39.278C51.9323 39.8338 52.5663 40.238 53.327 40.4906H53.2763C53.682 40.617 54.037 40.6674 53.9356 41.0717L53.8088 41.779C53.7327 42.2085 54.0116 42.537 54.4427 42.537H55.4063C55.8374 42.537 56.2431 42.1833 56.3192 41.779L56.446 41.1474C56.4967 40.8443 56.6995 40.7433 56.9531 40.6927C58.0435 40.5159 59.0071 40.1622 59.8185 39.5811C60.985 38.7727 61.695 37.6611 61.8978 36.2464C62.1007 35.0338 61.8217 34.0485 61.0864 33.3411C60.351 32.6338 59.1085 32.078 57.3842 31.699C56.2938 31.4464 55.6092 31.1938 55.3049 30.8906C55.0006 30.5874 54.8738 30.158 54.9752 29.6274C55.0513 29.097 55.3303 28.6674 55.7866 28.2885C56.2431 27.9096 56.8009 27.7327 57.511 27.7327C58.2463 27.7327 58.7788 27.9601 59.1339 28.3896C59.362 28.6674 59.4382 28.9454 59.4889 29.2232C59.6156 29.779 59.9453 30.0064 60.3003 30.0064H61.9993C62.6839 30.0064 62.8107 29.577 62.7853 29.1474C62.8107 28.2127 62.4304 27.2022 61.7964 26.5706Z" fill="currentColor" /><path d="M71.0002 19.8C71.4059 19.3958 71.7863 19.7242 71.6849 20.1032L68.6927 35.059C68.5913 35.6147 68.3884 36.5242 68.2869 37.08C68.2869 37.08 67.8089 39.4729 67.3103 42.002L67.2432 42.3423L67.1985 42.5695C66.9899 43.6297 66.7838 44.6842 66.6134 45.5684C66.1823 47.7158 65.1933 49.2316 63.5198 50.1916C62.6069 50.7221 61.4658 51 60.3754 51H44.1466C43.5888 51 43.462 50.5958 43.8677 50.1916L48.2545 45.8463C48.6602 45.4421 49.4717 45.1137 50.0296 45.1137H53.0217C53.605 45.1137 53.7317 45.4421 53.3261 45.8463L52.3118 46.8568C51.6491 47.5406 51.6049 47.5862 51.7875 47.5892L51.8151 47.5894H51.83H59.2597C59.8175 47.5894 60.7304 47.4379 61.2629 47.2358C61.2629 47.2358 62.9873 46.6042 63.2915 45.0126C63.6972 42.941 67.5516 24.0442 67.5516 24.0442C67.653 23.4884 68.0841 22.7053 68.4898 22.3011L71.0002 19.8ZM69.5548 15C70.1127 15 70.2395 15.4042 69.8338 15.8084L65.4469 20.1284C65.0412 20.5326 64.2298 20.8611 63.6719 20.8611H60.6797C60.0965 20.8611 59.9697 20.5326 60.3754 20.1284L61.3897 19.1179C62.0524 18.4341 62.0966 18.3885 61.9139 18.3855L61.8864 18.3853L61.8715 18.3853H54.4671C53.9093 18.3853 52.9964 18.5368 52.4639 18.7389C52.4639 18.7389 50.7396 19.3705 50.4353 20.9621C50.0296 23.0337 46.1752 41.9305 46.1752 41.9305C46.0738 42.4863 45.6427 43.2695 45.237 43.6737L42.7012 46.1747C42.2955 46.579 41.9152 46.2506 42.0166 45.8716L45.0088 30.941C45.1102 30.3853 45.3131 29.4758 45.4145 28.92C45.4145 28.92 45.907 26.4552 46.4135 23.8847L46.4582 23.6577L46.5029 23.4305L46.5698 23.0901C46.7553 22.1463 46.9359 21.2211 47.0881 20.4316C47.5192 18.2842 48.5081 16.7684 50.1817 15.8084C51.0946 15.2779 52.2356 15 53.3261 15H69.5548Z" fill="currentColor" /></svg>