<svg xmlns="http://www.w3.org/2000/svg" width="248" height="66" viewBox="0 0 248 66" fill="none"><path d="M127.291 47.9761C124.982 47.2977 122.877 46.5522 120.926 48.5428C120.915 48.5537 120.901 48.5612 120.886 48.5644C120.87 48.5677 120.855 48.5665 120.84 48.561C120.825 48.5555 120.813 48.546 120.803 48.5335C120.794 48.521 120.788 48.5061 120.787 48.4906L120.141 39.052C120.119 38.7223 120.181 38.7057 120.325 39.0023C122.43 43.3264 126.677 47.8146 131.928 47.6978C135.221 47.6233 137.927 45.8961 138.084 42.3523C138.456 33.9848 122.837 37.5758 120.71 28.6716C119.45 23.4056 122.551 19.2802 127.576 18.0302C130.083 17.4056 132.615 17.4611 135.173 18.1967C137.532 18.8776 139.16 19.5511 141.031 17.6872C141.041 17.677 141.055 17.6701 141.069 17.6673C141.083 17.6645 141.098 17.666 141.112 17.6715C141.125 17.6771 141.137 17.6865 141.145 17.6986C141.153 17.7106 141.157 17.7248 141.158 17.7394L141.339 26.1914C141.342 26.3405 141.304 26.3513 141.225 26.2237C141.024 25.899 140.781 25.4823 140.494 24.9737C138.422 21.2932 135.168 18.3284 130.713 18.475C128.131 18.562 125.896 20.2171 125.548 22.9036C124.336 32.2477 142.037 27.3445 143.064 38.4282C143.894 47.3673 134.015 49.9493 127.291 47.9761Z" fill="currentColor" /><path d="M73.0798 48.0607C74.8964 46.8156 75.4655 45.8638 75.4705 43.4706C75.4821 36.3432 75.4614 29.2158 75.4084 22.0884C75.3951 20.2643 74.6214 18.953 73.0872 18.1545C73.0743 18.1489 73.0638 18.139 73.0575 18.1264C73.0512 18.1139 73.0495 18.0995 73.0528 18.0858C73.0561 18.0721 73.0641 18.0601 73.0754 18.0517C73.0867 18.0433 73.1006 18.0393 73.1146 18.0401L84.4866 18.0302C84.6291 18.0302 84.6423 18.0725 84.5264 18.1569C84.2182 18.3781 83.8255 18.5819 83.5845 18.8081C82.6584 19.6745 82.1928 20.7059 82.1878 21.9021C82.1431 32.5617 82.1431 40.0171 82.1878 44.2683C82.1994 45.3916 82.6037 46.3732 83.4006 47.2132C83.7013 47.5288 84.1859 47.7848 84.5785 48.0805C84.668 48.1485 84.6564 48.1824 84.5438 48.1824H73.1171C72.9746 48.1824 72.9622 48.1418 73.0798 48.0607Z" fill="currentColor" /><path d="M99.8373 35.8139C99.7959 39.8497 99.7992 42.5842 99.8473 44.0173C99.9218 46.2589 101.301 47.2132 103.15 48.0259C103.385 48.1302 103.375 48.1824 103.118 48.1824H90.8759C90.6158 48.1824 90.5992 48.1195 90.8262 47.9936C92.4068 47.1204 93.1954 45.713 93.1921 43.7713C93.1805 34.3973 93.1647 27.3354 93.1448 22.5855C93.1374 20.7166 92.5807 19.1212 90.8734 18.2414C90.605 18.1039 90.6216 18.0352 90.9231 18.0352C96.2695 18.0352 101.682 18.0377 107.161 18.0426C108.354 18.0443 109.802 18.3069 111.505 18.8304C114.962 19.8941 117.335 22.2947 117.691 25.9702C118.347 32.7323 112.405 35.6126 106.602 35.6474C104.39 35.659 102.179 35.6714 99.969 35.6847C99.8829 35.6847 99.839 35.7277 99.8373 35.8139ZM99.7926 19.2231L99.8473 34.4918C99.8473 34.5042 99.8497 34.5165 99.8545 34.5279C99.8592 34.5394 99.8662 34.5498 99.8749 34.5586C99.8837 34.5673 99.8941 34.5743 99.9056 34.579C99.917 34.5838 99.9293 34.5862 99.9417 34.5862L104.234 34.5713C105.141 34.568 106.039 34.3862 106.876 34.0363C107.714 33.6863 108.474 33.1751 109.113 32.5317C109.753 31.8883 110.259 31.1254 110.603 30.2866C110.948 29.4477 111.123 28.5493 111.12 27.6427L111.115 25.9926C111.112 25.086 110.93 24.1889 110.579 23.3525C110.229 22.5162 109.717 21.757 109.073 21.1182C108.429 20.4794 107.665 19.9736 106.826 19.6297C105.986 19.2858 105.086 19.1105 104.179 19.1137L99.887 19.1286C99.8746 19.1286 99.8624 19.1311 99.8509 19.1358C99.8394 19.1406 99.829 19.1475 99.8203 19.1563C99.8115 19.1651 99.8045 19.1755 99.7998 19.1869C99.795 19.1984 99.7926 19.2107 99.7926 19.2231Z" fill="currentColor" /><path d="M161.449 33.7835C163.553 30.4733 165.642 27.1349 167.716 23.7684C168.825 21.9691 169.498 20.4805 167.923 18.8478C167.667 18.5819 167.286 18.3955 166.953 18.152C166.852 18.0791 166.865 18.0426 166.991 18.0426L173.944 18.0252C174.087 18.0252 174.1 18.0666 173.984 18.1495C172.341 19.315 171.248 20.6172 170.075 22.4662C167.331 26.7837 164.606 31.1145 161.899 35.4585C161.856 35.5268 161.833 35.6066 161.832 35.6896C161.81 38.5094 161.819 41.3276 161.859 44.1441C161.874 45.3005 162.252 46.2838 162.995 47.0939C163.323 47.4493 163.862 47.7276 164.302 48.0532C164.418 48.1393 164.404 48.1824 164.26 48.1824H153.136C152.753 48.1824 152.733 48.0954 153.074 47.9215C154.626 47.1295 155.409 45.8074 155.422 43.9552C155.442 41.1967 155.444 38.4365 155.427 35.6747C155.427 35.5919 155.406 35.5157 155.363 35.4461C152.371 30.6779 149.371 25.9164 146.364 21.1615C145.761 20.2088 144.773 19.2098 143.399 18.1644C143.29 18.0816 143.304 18.0401 143.441 18.0401L155.308 18.0302C155.441 18.0302 155.454 18.0708 155.348 18.152C153.986 19.1957 153.193 20.4259 154.22 22.1232C156.567 26.0083 158.931 29.8951 161.31 33.7835C161.356 33.8597 161.402 33.8597 161.449 33.7835Z" fill="currentColor" /></svg>