<svg xmlns="http://www.w3.org/2000/svg" width="248" height="66" viewBox="0 0 248 66" fill="currentColor"><path d="M53 26.1481H59.5756V42.3856H63.3044V26.1481H69.9051V23.3516H53V26.1481Z" fill="currentColor" /><path d="M75.2151 23.3613H71.5872V42.3857H75.2151V35.4322C75.2151 32.0058 77.5582 29.9146 79.6744 29.9146C81.1105 29.9146 82.1686 30.8468 82.1686 32.7364V42.3857H85.7966V31.5775C85.7966 28.5038 83.7559 27.0173 81.3373 27.0173C78.843 27.0173 76.2228 28.6802 75.2151 31.7538V23.3613Z" fill="currentColor" /><path fill-rule="evenodd" clip-rule="evenodd" d="M87.5669 34.7266C87.5669 30.8719 90.0359 27.0173 95.0243 27.0173C99.0554 27.0173 101.197 29.4611 101.197 34.0464V34.7519H90.6154C91.0185 37.1453 92.8576 39.0348 95.9565 39.0348C97.8209 39.0348 99.8112 38.3546 101.449 37.0445V40.5968C99.5845 41.9826 97.4681 42.6628 95.377 42.6628C90.4894 42.6628 87.5669 39.06 87.5669 34.7266ZM97.5185 32.9883C97.5185 30.4437 96.4856 29.1839 94.5456 29.1839C92.2278 29.1839 90.8673 30.9475 90.5902 32.9883H97.5185Z" fill="currentColor" /><path d="M116.828 23.3516H103.298V42.3856H107.052V33.6559H115.568V30.8594H107.052V26.1481H116.828V23.3516Z" fill="currentColor" /><path fill-rule="evenodd" clip-rule="evenodd" d="M117.167 34.8779C117.167 30.9728 119.964 27.0173 125.355 27.0173C130.646 27.0173 133.392 30.8972 133.392 34.8022C133.392 38.7325 130.595 42.6628 125.204 42.6628C119.938 42.6628 117.167 38.7577 117.167 34.8779ZM125.456 39.8662C128.227 39.8662 129.688 37.6492 129.688 35.029C129.688 32.2828 128.101 29.8139 125.103 29.8139C122.332 29.8139 120.87 32.0308 120.87 34.6259C120.87 37.3972 122.458 39.8662 125.456 39.8662Z" fill="currentColor" /><path d="M138.513 27.2694H135.163V42.3858H138.791V33.2655C139.546 31.4012 141.335 30.3935 143.174 30.3935C144.157 30.3935 145.19 30.6706 145.971 31.2248V27.6725C145.366 27.2946 144.585 27.0679 143.804 27.0679C141.537 27.0679 139.32 28.5039 138.513 31.9303V27.2694Z" fill="currentColor" /><path d="M154.641 33.3721L161.835 25.7124H157.721L151.449 32.1812L151.447 23.3516H147.821V42.3856H151.473L151.447 34.623C151.447 34.623 157.459 34.4754 157.459 42.3856H161.39C161.39 34.7267 154.641 33.3721 154.641 33.3721Z" fill="currentColor" /><path d="M164.98 33.1366C164.988 26.0934 170.163 19.0059 180.351 19.0059C190.274 19.0059 195.439 26.1724 195.323 32.9595C195.188 40.8271 189.943 44.897 185.246 46.3602L184.71 44.0143C184.43 42.7846 184.763 41.6875 185.633 40.912C186.757 39.9093 187.427 38.6694 187.775 36.9549C188.143 35.1424 187.971 33.1531 187.153 31.1662L184.374 23.352H181.587L183.814 32.2784C184.018 33.1676 183.343 34.0155 182.431 34.0155L179.724 22.1466H177.192L179.628 36.7939C178.102 36.9309 177.537 35.941 177.41 35.2247L175.856 24.1624H173.282C173.282 24.1624 173.299 30.122 173.299 34.1921C173.299 40.1742 176.496 41.955 178.704 42.4862C179.953 42.7866 180.788 43.7579 181.014 45.1217L181.328 47.0058C176.598 47.018 164.967 45.2577 164.98 33.1366Z" fill="currentColor" /></svg>