<svg xmlns="http://www.w3.org/2000/svg" width="248" height="66" viewBox="0 0 248 66" fill="currentColor"><path d="M145.745 45.9996C145.542 45.9996 145.34 45.9596 145.153 45.8818C144.965 45.804 144.794 45.6899 144.65 45.5462C144.506 45.4024 144.392 45.2317 144.315 45.0438C144.237 44.856 144.197 44.6546 144.197 44.4513V15.5483C144.197 15.345 144.237 15.1436 144.315 14.9558C144.392 14.7679 144.506 14.5972 144.65 14.4534C144.794 14.3096 144.965 14.1956 145.153 14.1178C145.34 14.04 145.542 14 145.745 14C145.948 13.9999 146.15 14.04 146.338 14.1177C146.526 14.1955 146.696 14.3096 146.84 14.4534C146.984 14.5971 147.098 14.7678 147.176 14.9557C147.254 15.1436 147.294 15.3449 147.294 15.5483V44.4513C147.294 44.6546 147.254 44.856 147.176 45.0439C147.098 45.2318 146.984 45.4025 146.84 45.5462C146.696 45.69 146.526 45.8041 146.338 45.8818C146.15 45.9596 145.948 45.9996 145.745 45.9996ZM172.225 41.9438C172.357 41.7889 172.457 41.6095 172.519 41.416C172.581 41.2224 172.605 41.0185 172.589 40.8158C172.572 40.6132 172.516 40.4157 172.423 40.2348C172.33 40.0539 172.203 39.8931 172.048 39.7615C171.893 39.6298 171.713 39.53 171.52 39.4677C171.326 39.4054 171.122 39.3818 170.92 39.3984C170.717 39.4149 170.519 39.4712 170.339 39.564C170.158 39.6568 169.997 39.7844 169.865 39.9394C168.265 41.8227 165.87 42.903 163.293 42.903C159.025 42.903 155.552 39.4301 155.552 35.1613C155.552 30.8926 159.025 27.4198 163.293 27.4198C166.762 27.4198 169.66 29.912 170.289 33.2001H160.816C160.612 33.2001 160.411 33.2401 160.223 33.3179C160.035 33.3958 159.864 33.5098 159.721 33.6536C159.577 33.7974 159.463 33.9681 159.385 34.156C159.307 34.3439 159.267 34.5453 159.267 34.7486C159.267 34.952 159.307 35.1533 159.385 35.3412C159.463 35.529 159.577 35.6997 159.721 35.8435C159.864 35.9873 160.035 36.1013 160.223 36.1791C160.411 36.2569 160.612 36.2969 160.816 36.2969H171.964C172.167 36.297 172.369 36.257 172.556 36.1792C172.744 36.1014 172.915 35.9873 173.059 35.8436C173.203 35.6998 173.317 35.5291 173.394 35.3412C173.472 35.1533 173.512 34.952 173.512 34.7486V34.542C173.512 28.9069 168.928 24.3226 163.293 24.3226C157.316 24.3226 152.454 29.1848 152.454 35.1613C152.454 41.1378 157.317 45.9996 163.293 45.9996C166.78 45.9996 170.036 44.5211 172.225 41.9438ZM139.036 44.4513V34.5414C139.036 28.9063 134.452 24.3222 128.817 24.3222C122.84 24.3222 117.978 29.1844 117.978 35.1609C117.978 41.1374 122.84 45.9996 128.817 45.9996C129.02 45.9996 129.221 45.9596 129.409 45.8818C129.597 45.804 129.768 45.6899 129.911 45.5462C130.055 45.4024 130.169 45.2317 130.247 45.0438C130.325 44.856 130.365 44.6546 130.365 44.4513C130.365 44.248 130.325 44.0466 130.247 43.8587C130.169 43.6709 130.055 43.5002 129.912 43.3564C129.768 43.2126 129.597 43.0985 129.409 43.0207C129.221 42.943 129.02 42.9029 128.817 42.903C124.548 42.903 121.075 39.4301 121.075 35.1613C121.075 30.8926 124.548 27.4198 128.817 27.4198C132.744 27.4198 135.939 30.6147 135.939 34.5424V44.4517C135.939 44.655 135.979 44.8564 136.057 45.0443C136.135 45.2321 136.249 45.4029 136.392 45.5466C136.536 45.6904 136.707 45.8045 136.895 45.8823C137.083 45.96 137.284 46.0001 137.487 46C137.898 45.9998 138.292 45.8366 138.582 45.5462C138.873 45.2558 139.036 44.862 139.036 44.4513ZM92.167 39.8062C92.167 38.2951 91.612 36.2338 88.9675 34.9953C87.3808 34.252 85.3898 33.9467 83.4643 33.6514C78.9534 32.9598 77.3516 32.3819 77.3516 30.5158C77.3516 28.4829 80.1707 27.4192 82.9556 27.4192C84.7106 27.4192 87.2325 27.7731 89.2832 29.4595C89.4403 29.5887 89.6212 29.6856 89.8158 29.7449C90.0104 29.8041 90.2147 29.8245 90.4171 29.8048C90.6195 29.785 90.8161 29.7256 90.9956 29.6299C91.175 29.5343 91.3339 29.4042 91.4631 29.2471C91.5923 29.09 91.6893 28.909 91.7485 28.7145C91.8078 28.5199 91.8281 28.3156 91.8084 28.1132C91.7887 27.9107 91.7293 27.7142 91.6336 27.5347C91.5379 27.3552 91.4078 27.1964 91.2507 27.0672C88.4919 24.798 85.217 24.3216 82.956 24.3216C76.9781 24.3216 74.2554 27.5322 74.2554 30.515C74.2554 32.0363 74.8127 34.1113 77.4672 35.3588C79.0626 36.1084 81.0622 36.4147 82.9959 36.7115C87.479 37.399 89.0708 37.9696 89.0708 39.8054C89.0708 41.6578 86.8595 42.902 83.5691 42.902C80.2005 42.902 77.6332 41.536 76.403 40.7215C76.0606 40.4949 75.6421 40.4136 75.2397 40.4955C74.8374 40.5773 74.484 40.8157 74.2572 41.1581C74.145 41.3276 74.0673 41.5176 74.0285 41.7172C73.9896 41.9168 73.9905 42.1221 74.0311 42.3214C74.0716 42.5206 74.151 42.71 74.2647 42.8785C74.3785 43.0471 74.5243 43.1916 74.6938 43.3039C77.3187 45.0423 80.4706 45.9996 83.568 45.9996C89.5082 45.9996 92.167 42.8887 92.167 39.8062ZM114.617 41.4297C114.845 41.0876 114.927 40.6693 114.846 40.2667C114.765 39.8642 114.527 39.5103 114.185 39.2828C113.843 39.0555 113.425 38.9734 113.022 39.0545C112.619 39.1356 112.266 39.3733 112.038 39.7153C110.712 41.7113 108.493 42.9024 106.102 42.9024C101.834 42.9024 98.3606 39.4297 98.3606 35.1609C98.3606 30.8922 101.834 27.4194 106.102 27.4194C108.493 27.4194 110.712 28.6106 112.038 30.6065C112.151 30.7759 112.296 30.9214 112.464 31.0348C112.633 31.1482 112.823 31.2272 113.022 31.2674C113.221 31.3075 113.427 31.308 113.626 31.2688C113.826 31.2295 114.016 31.1514 114.185 31.0388C114.354 30.9263 114.5 30.7815 114.613 30.6127C114.727 30.4439 114.806 30.2544 114.846 30.055C114.886 29.8557 114.886 29.6504 114.847 29.4509C114.808 29.2514 114.73 29.0615 114.617 28.8922C112.716 26.0304 109.532 24.322 106.102 24.322C100.126 24.322 95.2636 29.1842 95.2636 35.1609C95.2636 41.1374 100.126 45.9996 106.102 45.9996C109.533 45.9996 112.716 44.2912 114.617 41.4297Z" fill="currentColor" /></svg>