<svg xmlns="http://www.w3.org/2000/svg" width="248" height="66" viewBox="0 0 248 66" fill="none"><g mask="url(#mask0_393_9518)"><path d="M100.352 38.9541C100.849 39.4238 100.766 39.9212 100.38 40.4185C99.6075 41.3302 97.4838 42.6287 94.698 42.6287C90.2023 42.6287 86.7822 39.0646 86.7822 34.3402C86.7822 29.6157 90.1748 26.1068 94.7256 26.1068C97.3182 26.1068 99.3317 27.212 100.159 28.1514C100.628 28.7039 100.545 29.1184 100.104 29.5881C99.5798 30.1129 99.1662 30.0577 98.6972 29.6433C98.0353 29.0355 96.9046 28.0409 94.8635 28.0409C91.3332 28.0409 88.8784 30.7209 88.8784 34.3678C88.8784 38.0147 91.3608 40.6947 94.836 40.6947C96.9872 40.6947 98.1732 39.6172 98.9179 38.9818C99.2213 38.7055 99.7453 38.3463 100.352 38.9541ZM114.805 30.0301C114.198 30.0301 113.784 30.4445 113.784 31.1076V38.07C113.784 39.2304 112.681 40.7224 110.199 40.75C108.213 40.75 106.751 39.9212 106.751 37.1859V31.1076C106.751 30.4722 106.392 30.0301 105.758 30.0301C105.151 30.0301 104.765 30.4445 104.765 31.1076V37.4898C104.765 41.2473 107.11 42.6287 109.785 42.6287C111.853 42.6287 113.205 41.5789 113.674 40.7776H113.784V41.3854C113.784 42.0209 114.17 42.4629 114.805 42.4629C115.411 42.4629 115.798 42.0485 115.798 41.3854V31.08C115.798 30.4445 115.411 30.0301 114.805 30.0301ZM127.106 30.0853C126.775 29.9748 126.361 29.8367 125.782 29.8367C124.127 29.8367 122.941 30.9695 122.445 32.047H122.334V31.08C122.334 30.4445 121.976 30.0024 121.341 30.0024C120.735 30.0024 120.348 30.4169 120.348 31.08V41.3578C120.348 41.9932 120.707 42.4353 121.341 42.4353C121.948 42.4353 122.334 42.0209 122.334 41.3578V37.1031C122.334 33.6771 123.631 31.7707 125.644 31.7707C126.03 31.7707 126.416 31.8813 126.664 31.9918C127.299 32.1023 127.74 31.8536 127.85 31.2734C127.988 30.6655 127.713 30.2512 127.106 30.0853ZM141.944 35.2796C141.944 36.3846 141.31 37.0478 140.234 37.0478H132.291C132.622 39.1751 134.139 40.75 136.594 40.75C137.807 40.75 138.855 40.3631 139.545 39.9764C140.152 39.6724 140.648 39.7001 140.951 40.2526C141.282 40.7776 141.144 41.2473 140.565 41.6341C139.738 42.1867 138.248 42.6011 136.704 42.6011C132.65 42.6011 130.222 39.8659 130.222 36.2465C130.222 32.4615 132.787 29.8367 136.263 29.8367C139.545 29.8643 141.944 31.9918 141.944 35.2796ZM140.014 35.2796C140.014 33.1798 138.359 31.7154 136.263 31.7154C134.194 31.7154 132.705 33.1798 132.319 35.2796H140.014ZM158.272 36.1913C158.272 39.6724 156.149 42.6287 151.956 42.6287C148.067 42.6287 145.861 40.0317 145.861 36.882V26.1068C145.861 25.4714 146.219 25.0017 146.854 25.0017C147.461 25.0017 147.847 25.4438 147.847 26.1068V32.1023H147.985C148.426 31.3011 149.722 29.8643 152.232 29.8643C155.625 29.8643 158.272 32.4338 158.272 36.1913ZM156.259 36.2465C156.259 33.5666 154.466 31.7154 151.929 31.7154C149.419 31.7154 147.874 33.5389 147.874 36.1636V36.3294C147.874 39.0646 149.474 40.7224 152.039 40.7224C155.073 40.7224 156.259 38.3739 156.259 36.2465ZM174.159 35.5006V41.3578C174.159 42.0209 173.8 42.4629 173.166 42.4629C172.532 42.4629 172.146 42.0485 172.146 41.3578V40.5014H172.007C171.622 41.2197 170.491 42.6287 167.871 42.6287C164.368 42.6287 161.692 39.8935 161.692 36.3846C161.692 32.6272 164.175 29.8643 168.201 29.8643C171.401 29.8643 174.159 31.8813 174.159 35.5006ZM172.146 35.7492C172.146 33.1798 170.657 31.7154 168.201 31.7154C165.25 31.7154 163.733 33.8152 163.733 36.2465C163.733 38.8713 165.416 40.7224 168.092 40.7224C170.628 40.7224 172.146 39.0646 172.146 36.1636V35.7492ZM183.537 35.2242C181.247 34.6164 180.585 34.1744 180.585 33.2626C180.585 32.1575 181.55 31.6602 182.792 31.6602C184.115 31.6602 184.943 32.2127 185.578 32.7377C185.936 33.0693 186.35 33.2627 186.929 32.6825C187.508 32.1023 187.26 31.6602 186.957 31.3287C186.102 30.334 184.557 29.8367 183.04 29.8367C180.64 29.8367 178.682 31.0524 178.682 33.456C178.682 35.4177 180.034 36.1913 182.378 36.8267C184.916 37.4622 185.799 37.8766 185.799 38.9541C185.799 40.1145 184.723 40.7776 183.234 40.7776C181.468 40.7776 180.53 39.9764 179.896 39.3133C179.593 39.037 179.124 38.816 178.544 39.3133C178.104 39.7001 178.02 40.1698 178.489 40.7224C179.234 41.6894 180.917 42.5734 183.15 42.5734C185.826 42.5734 187.756 41.3026 187.756 38.816C187.729 36.2741 185.688 35.7492 183.537 35.2242ZM201.133 37.0478H193.19C193.521 39.1751 195.038 40.75 197.493 40.75C198.706 40.75 199.754 40.3631 200.443 39.9764C201.05 39.6724 201.547 39.7001 201.85 40.2526C202.181 40.7776 202.043 41.2473 201.464 41.6341C200.637 42.1867 199.148 42.6011 197.603 42.6011C193.549 42.6011 191.121 39.8659 191.121 36.2465C191.121 32.4615 193.713 29.8367 197.161 29.8367C200.443 29.8367 202.844 31.9641 202.844 35.2796C202.844 36.3846 202.181 37.0478 201.133 37.0478ZM200.885 35.2796C200.885 33.1798 199.23 31.7154 197.134 31.7154C195.065 31.7154 193.576 33.1798 193.19 35.2796H200.885Z" /><path d="M59.8369 47.9056C60.1403 49.0383 59.4783 50.1987 58.3198 50.5027C57.1891 50.8066 56.0307 50.1435 55.7273 49.0107C55.4239 47.8779 56.0858 46.7175 57.2166 46.4137C58.3751 46.0821 59.5335 46.7452 59.8369 47.9056ZM75.7235 41.4405C74.5927 41.7444 73.9032 42.9048 74.2341 44.0375C74.5375 45.1703 75.6959 45.8611 76.8268 45.5295C77.9576 45.2257 78.6471 44.0652 78.3437 42.9324C78.0127 41.7996 76.8544 41.1366 75.7235 41.4405ZM49.2457 40.0314C48.1149 40.3354 47.4254 41.4958 47.7563 42.6285C48.0597 43.7613 49.2181 44.452 50.349 44.1205C51.4798 43.8166 52.1693 42.6562 51.8383 41.5234C51.5349 40.3906 50.3765 39.7276 49.2457 40.0314ZM49.1906 31.5494C48.8872 30.4167 47.7288 29.726 46.5979 30.0299C45.4671 30.3338 44.7776 31.4942 45.1086 32.6269C45.4119 33.7597 46.5703 34.4505 47.7012 34.1189C48.8044 33.8427 49.4939 32.6822 49.1906 31.5494ZM79.3918 23.4267C79.0884 22.2939 77.93 21.6032 76.7991 21.9071C75.6684 22.211 74.9788 23.3714 75.3098 24.5042C75.6131 25.637 76.7716 26.3276 77.9024 25.9961C79.0332 25.7475 79.6952 24.5594 79.3918 23.4267ZM50.3214 20.5257C49.1906 20.8296 48.501 21.99 48.832 23.1228C49.1354 24.2555 50.2938 24.9463 51.4246 24.6147C52.5554 24.3108 53.245 23.1504 52.914 22.0176C52.6106 20.9125 51.4522 20.2218 50.3214 20.5257ZM68.8007 15.5802C67.6699 15.8841 66.9803 17.0445 67.3113 18.1773C67.6147 19.31 68.7731 20.0007 69.904 19.6968C71.0347 19.3929 71.7243 18.2325 71.4209 17.0997C71.0899 15.9393 69.9315 15.2762 68.8007 15.5802ZM58.9266 15.0828C57.7958 15.3868 57.1063 16.5472 57.4373 17.6799C57.7407 18.8127 58.899 19.5034 60.0299 19.1995C61.1607 18.8956 61.8503 17.7352 61.5469 16.6024C61.2159 15.442 60.0575 14.7789 58.9266 15.0828ZM67.4216 46.8004C66.2909 47.1044 65.6013 48.2648 65.9322 49.3976C66.2356 50.5303 67.3941 51.221 68.5248 50.8894C69.6557 50.5856 70.3452 49.4252 70.0142 48.2924C69.7108 47.1873 68.5525 46.4966 67.4216 46.8004Z" /><path d="M58.5143 26.0516C57.4939 26.3279 56.4182 25.7201 56.1424 24.6702C55.8666 23.6203 56.4734 22.5704 57.5215 22.2941C58.5696 22.0178 59.6176 22.6257 59.8935 23.6755C60.1692 24.7254 59.5349 25.7753 58.5143 26.0516ZM64.9407 24.311C65.9613 24.0347 66.5956 22.9572 66.3198 21.935C66.0441 20.9127 64.9683 20.2772 63.9479 20.5535C62.9274 20.8298 62.2929 21.9073 62.5688 22.9296C62.8446 23.9518 63.8927 24.5873 64.9407 24.311ZM54.4324 31.1629C55.4529 30.8866 56.0872 29.8091 55.8114 28.7868C55.5356 27.7646 54.46 27.1291 53.4395 27.4054C52.419 27.6816 51.7846 28.7592 52.0604 29.7814C52.3362 30.8037 53.4119 31.4392 54.4324 31.1629ZM56.5836 39.1752C55.5632 39.4514 54.9288 40.529 55.2046 41.5513C55.4805 42.5735 56.5561 43.209 57.5766 42.9326C58.5971 42.6564 59.2315 41.5789 58.9556 40.5566C58.6798 39.5343 57.6317 38.8989 56.5836 39.1752ZM55.508 35.1691C55.2322 34.1468 54.1566 33.5114 53.1361 33.7876C52.1156 34.0639 51.4812 35.1415 51.757 36.1636C52.0328 37.1859 53.1085 37.8213 54.129 37.5451C55.1495 37.2688 55.7839 36.1912 55.508 35.1691ZM62.6791 41.5789C61.6586 41.8551 61.0242 42.9326 61.3001 43.9549C61.5759 44.9772 62.6515 45.6126 63.6721 45.3363C64.6925 45.0601 65.3269 43.9825 65.0511 42.9603C64.7753 41.938 63.6996 41.3025 62.6791 41.5789ZM69.0779 39.8383C68.0574 40.1145 67.4231 41.192 67.6988 42.2143C67.9746 43.2366 69.0503 43.872 70.0708 43.5957C71.0913 43.3195 71.7257 42.2419 71.4498 41.2197C71.1741 40.1974 70.126 39.5619 69.0779 39.8383ZM70.65 26.8252C71.6705 26.5489 72.3049 25.4714 72.0291 24.4492C71.7532 23.4269 70.6776 22.7914 69.6572 23.0677C68.6366 23.344 68.0022 24.4215 68.278 25.4438C68.5539 26.466 69.6019 27.1014 70.65 26.8252ZM62.5136 29.2565C60.445 29.8091 59.2315 31.9365 59.7831 34.0087C60.3348 36.0808 62.4585 37.2964 64.527 36.7438C66.5956 36.1912 67.8092 34.0639 67.2576 31.9917C66.706 29.9196 64.5822 28.7039 62.5136 29.2565Z" /></g></svg>