<svg xmlns="http://www.w3.org/2000/svg" width="248" height="66" viewBox="0 0 248 66" fill="currentColor"><path d="M76.0113 33.0024V42.9999L60.0073 53V42.9999L76.0113 33.0024ZM60.0073 33.0024V42.9999L44.0037 53V42.9999L60.0073 33.0024ZM44.0037 33.0024V42.9999L28 53V42.9999L44.0037 33.0024ZM127.256 31.3973C128.138 32.9577 128.489 34.7623 128.256 36.5393C128.024 38.3164 127.22 39.9697 125.966 41.2504C124.547 42.6261 122.654 43.4041 120.677 43.4235C119.25 43.4575 117.86 42.9636 116.773 42.0363V50.1283H112.661V27.9669H116.66V29.1313C117.788 28.1875 119.214 27.6741 120.684 27.6826C122.01 27.6707 123.314 28.0078 124.468 28.6598C125.621 29.3119 126.583 30.256 127.256 31.3973ZM141.75 29.2477V27.9572H145.651L145.642 43.0753H141.78V41.7855C141.233 42.3233 140.583 42.7455 139.869 43.027C139.156 43.3084 138.393 43.4434 137.626 43.4239C136.295 43.4344 134.987 43.0886 133.835 42.4226C132.684 41.7565 131.731 40.7943 131.077 39.6359C130.346 38.398 129.975 36.98 130.007 35.5424C130.007 32.4908 131.581 29.9411 133.911 28.6487C135.052 28.0009 136.344 27.6645 137.656 27.6732C139.175 27.6351 140.648 28.2013 141.75 29.2477ZM187.483 27.671C190.474 27.671 192.708 28.8047 194.188 31.1036L191.039 33.0543C190.159 31.7948 188.994 31.1603 187.514 31.1603C185.123 31.1603 183.518 33.0188 183.518 35.5995C183.518 38.1797 185.059 39.8796 187.483 39.8796C188.206 39.8942 188.922 39.7328 189.569 39.4096C190.216 39.0863 190.775 38.6107 191.198 38.0237L194.219 40.0218C192.772 42.1005 190.317 43.3906 187.514 43.3906C184.555 43.3906 181.943 42.0057 180.495 39.6027C179.959 38.696 179.61 37.6915 179.467 36.648C179.324 35.6045 179.391 34.543 179.664 33.5258C179.937 32.5085 180.41 31.5559 181.055 30.7237C181.701 29.8915 182.506 29.1965 183.423 28.6794C184.671 28.0078 186.067 27.661 187.483 27.671H187.483ZM211.211 27.6452L211.394 27.6471C215.959 27.6471 219.074 30.8599 219.074 35.8648C219.078 36.0223 219.072 36.1802 219.059 36.3373L219.043 36.494H207.429C207.744 38.6959 209.263 39.8606 211.394 39.8606C212.094 39.8765 212.788 39.738 213.428 39.4548C214.068 39.1716 214.638 38.7508 215.096 38.2223L215.182 38.1208L218.067 40.0192L217.978 40.1442C216.463 42.2058 214.109 43.3552 211.394 43.3552C209.034 43.3552 206.924 42.4789 205.57 41.0586C204.158 39.5738 203.38 37.5981 203.399 35.5495C203.399 32.621 204.751 30.1378 207.208 28.7174C208.372 28.0479 209.685 27.6802 211.028 27.6478L211.21 27.6452H211.211ZM93.8403 27.6874C95.919 27.6874 97.4293 28.3812 98.31 29.7661C99.9782 28.3804 101.804 27.6874 103.788 27.6874C107.346 27.6826 109.267 29.7683 109.267 33.6014V43.0708H105.173V33.9164C105.173 32.0601 104.292 31.1462 102.592 31.1462C101.33 31.1462 100.225 31.6813 99.2785 32.7513V43.0757H95.1942V33.916C95.1942 32.0601 94.3445 31.1462 92.6446 31.1462C91.3545 31.1462 90.2535 31.7119 89.309 32.8461V43.0753H85.1852V27.9673H89.025V29.3877C90.3765 28.2658 92.084 27.6627 93.8403 27.6874ZM157.919 27.6826V31.5865C157.549 31.489 157.167 31.4467 156.785 31.4611C155.423 31.4985 154.146 32.131 153.291 33.1916V43.0757H149.169V27.9669H153.009V29.3515C154.235 28.1229 155.59 27.6826 157.919 27.6826ZM166.946 22.9314V27.9669H170.346V31.3667H166.946V43.0757H162.85V31.3663H159.676V27.9666H162.85V22.9318H166.946V22.9314ZM176.884 27.9669V43.0757H172.76V27.9669H176.884ZM201.015 20.4433V43.0757H196.925V20.443L201.015 20.4433ZM138.213 31.1465C136.009 31.1465 134.122 32.8461 134.122 35.5521C134.122 38.2577 135.978 39.9296 138.182 39.9296C138.82 39.9518 139.456 39.8335 140.043 39.5831C140.63 39.3327 141.156 38.9563 141.582 38.4805V32.6259C141.158 32.154 140.638 31.7779 140.057 31.5228C139.476 31.2676 138.847 31.1396 138.213 31.1465ZM120.178 31.1465C119.524 31.1371 118.875 31.2701 118.278 31.5362C117.68 31.8022 117.147 32.1951 116.717 32.6875V38.4496C117.131 38.919 117.641 39.294 118.213 39.5493C118.785 39.8045 119.405 39.9341 120.031 39.9293C122.346 39.9293 124.202 38.2603 124.202 35.4905C124.202 32.8151 122.308 31.1465 120.178 31.1465ZM211.496 31.0159C209.554 31.0159 208.216 31.9504 207.631 33.6745L207.594 33.7884H215.116C214.622 31.9717 213.466 31.0577 211.618 31.0196L211.496 31.0185V31.0159ZM60.0073 13V23.0001L44.0037 32.9994V23.0001L60.0073 13ZM76.0113 13V23.0001L60.0073 32.9994V23.0001L76.0113 13ZM44.0037 13V23.0001L28 32.9994V23.0001L44.0037 13ZM176.979 21.7973V25.9521H172.665V21.7973H176.979Z" fill="currentColor" /></svg>