<svg xmlns="http://www.w3.org/2000/svg" width="248" height="66" viewBox="0 0 248 66" fill="currentColor"><path fill-rule="evenodd" clip-rule="evenodd" d="M80.065 35.19H82C81.245 38.662 78.295 41 74.354 41C69.728 41 66 37.55 66 32.989C66 28.427 69.728 25 74.354 25C78.294 25 81.244 27.315 82 30.787H80.065C79.404 28.268 77.28 26.68 74.355 26.68C70.72 26.68 67.888 29.38 67.888 32.989C67.888 36.597 70.72 39.321 74.354 39.321C77.28 39.321 79.405 37.686 80.065 35.19ZM102 33C102 37.455 98.43 41 94 41C89.57 41 86 37.455 86 33C86 28.545 89.57 25 94 25C98.43 25 102 28.545 102 33ZM100.192 33C100.192 29.5 97.481 26.682 94 26.682C90.52 26.682 87.808 29.5 87.808 33C87.808 36.5 90.52 39.318 94 39.318C97.48 39.318 100.192 36.5 100.192 33ZM121 25V41H119.52L109.77 28.388V41H108V25H109.435L119.229 37.777V25H121ZM129.86 26.718V32.6H138.01V34.317H129.86V41H128V25H139V26.718H129.86ZM156 39.282V41H145V25H146.914V39.282H156ZM173 33.994C173 38.179 170.21 41 166 41C161.79 41 159 38.18 159 33.994V25H160.9V33.994C160.9 37.069 162.92 39.289 166 39.289C169.055 39.289 171.1 37.069 171.1 33.994V25H173V33.994ZM181.826 26.718V32.2H190.076V33.918H181.826V39.283H191V41H180V25H191V26.718H181.826ZM209 25V41H207.52L197.77 28.388V41H196V25H197.435L207.229 37.777V25H209ZM228 26.718H222.374V41H220.604V26.718H215V25H228V26.718ZM44.375 33.975C45.25 33.928 46.125 33.9 47 33.836V33.164C46.125 33.1 45.25 33.072 44.375 33.024L41.75 32.943C40.21 32.896 38.67 32.883 37.128 32.873C37.125 31.333 37.118 29.791 37.077 28.25L37.003 25.625C36.958 24.75 36.933 23.875 36.871 23H36.129C36.067 23.875 36.042 24.75 35.997 25.625L35.924 28.25C35.904 28.973 35.895 29.697 35.888 30.42C35.603 29.755 35.318 29.09 35.023 28.429L33.951 26.032C33.574 25.242 33.216 24.442 32.824 23.657L32.14 23.942C32.417 24.773 32.729 25.592 33.022 26.417L33.959 28.871C34.217 29.546 34.485 30.217 34.755 30.889C34.2392 30.3817 33.7192 29.8786 33.195 29.38L31.287 27.576C30.637 26.989 30 26.388 29.337 25.813L28.814 26.337C29.388 27 29.989 27.637 30.576 28.287L32.38 30.195C32.878 30.72 33.383 31.238 33.889 31.755C33.217 31.485 32.546 31.217 31.87 30.959L29.417 30.022C28.592 29.729 27.773 29.417 26.941 29.139L26.657 29.824C27.442 30.216 28.241 30.574 29.032 30.951L31.429 32.023C32.089 32.318 32.754 32.603 33.419 32.887C32.696 32.895 31.973 32.904 31.249 32.923L28.625 32.997C27.75 33.042 26.875 33.067 26 33.129V33.871C26.875 33.933 27.75 33.958 28.625 34.003L31.25 34.076C32.792 34.118 34.333 34.125 35.874 34.128C35.884 35.668 35.896 37.209 35.943 38.75L36.025 41.375C36.072 42.25 36.1 43.125 36.164 44H36.836C36.9 43.125 36.928 42.25 36.976 41.375L37.057 38.75C37.08 38.009 37.092 37.268 37.103 36.527C37.395 37.208 37.69 37.888 37.995 38.564L39.075 40.957C39.453 41.747 39.813 42.545 40.208 43.33L40.828 43.071C40.553 42.239 40.245 41.42 39.953 40.593L39.023 38.138C38.761 37.444 38.489 36.755 38.215 36.066C38.746 36.583 39.278 37.098 39.819 37.606L41.732 39.405C42.384 39.99 43.022 40.589 43.687 41.163L44.163 40.687C43.589 40.023 42.99 39.384 42.405 38.732L40.606 36.818C40.0975 36.2794 39.5845 35.745 39.067 35.215C39.755 35.49 40.444 35.761 41.137 36.024L43.594 36.953C44.42 37.245 45.239 37.553 46.072 37.829L46.33 37.207C45.545 36.814 44.748 36.452 43.957 36.074L41.564 34.994C40.888 34.69 40.208 34.396 39.528 34.102C40.268 34.092 41.009 34.08 41.75 34.057L44.375 33.975Z" /><path fill-rule="evenodd" clip-rule="evenodd" d="M37 50C27.626 50 20 42.374 20 33C20 23.626 27.626 16 37 16C46.374 16 54 23.626 54 33C54 42.374 46.374 50 37 50ZM37 17.59C28.503 17.59 21.59 24.502 21.59 33C21.59 41.498 28.503 48.41 37 48.41C45.497 48.41 52.41 41.497 52.41 33C52.41 24.503 45.497 17.59 37 17.59Z" /></svg>