<svg xmlns="http://www.w3.org/2000/svg" width="248" height="66" viewBox="0 0 248 66" fill="currentColor"><path fill-rule="evenodd" clip-rule="evenodd" d="M69.894 20L80.53 46H77.29L68.388 23.61L59.404 46H56.34L66.948 20H69.894ZM38.239 20L47.142 42.39L56.125 20H59.178L48.582 46H45.636L35 20H38.239ZM87.154 20V43.434H99.949V46H84.235V20H87.154ZM106.574 20V46H103.654V20H106.574ZM191.528 20V46H188.609V20H191.529H191.528ZM200.205 20V43.434H213V46H197.286V20H200.205ZM174.308 20L184.904 46H181.705L172.762 23.61L163.765 46H160.713L171.323 20H174.308ZM113.904 20C115.469 20.015 120.402 20.402 124.594 24.457C127.405 27.167 129.311 29.429 130.698 31.082C132.71 33.476 133.576 34.455 134.656 34.455C135.736 34.455 136.589 33.476 138.615 31.082C140.001 29.429 141.907 27.182 144.719 24.457C148.997 20.317 154.035 20 155.489 20H157.008V22.883H155.405C154.145 22.896 150.199 23.211 146.838 26.493C144.132 29.112 142.36 31.215 140.934 32.907C138.601 35.671 137.202 37.337 134.669 37.337C132.137 37.337 130.738 35.671 128.405 32.907C126.979 31.215 125.206 29.112 122.501 26.493C119.915 23.993 116.969 23.227 115.303 22.989V45.999H112.331V20H113.904ZM157.008 36.121V46H146.785V43.42H154.035V36.12L157.008 36.121Z" fill="currentColor" /></svg>