<svg xmlns="http://www.w3.org/2000/svg" width="248" height="66" viewBox="0 0 248 66" fill="currentColor"><path d="M81 32.7834V48.5668H84.5891H88.135L88.0052 42.0804C87.8755 35.1184 88.0485 34.513 90.0376 35.5941C90.9025 36.0265 90.9457 36.4157 90.9457 42.2966V48.5668H94.4051H97.8645V42.5129C97.8645 36.2427 97.432 34.2968 95.9618 33.7347C95.4429 33.5185 95.5726 33.2158 96.5672 32.178L97.8645 30.9239V25.4322C97.8645 22.4485 97.6483 19.5945 97.432 19.1188C96.4807 17.3459 94.8375 16.9999 87.7025 16.9999H81V32.7834ZM90.8592 26.1673C90.989 30.7942 90.989 30.7942 89.9079 31.0969C89.3025 31.2266 88.6106 31.2266 88.3944 31.0537C88.0917 30.8807 87.9188 28.8916 87.9188 26.0376V21.2809L89.3458 21.4107L90.7295 21.5404L90.8592 26.1673Z" fill="currentColor" /><path d="M99.1582 32.7834V48.5668H105.645H112.131V46.4047V44.2858L109.234 44.1561L106.293 44.0263L106.163 39.7886L106.034 35.5941H108.888H111.698V33.2158V30.8375H108.888H106.077V26.297V21.7566H109.104H112.131V19.3783V16.9999H105.645H99.1582V32.7834Z" fill="currentColor" /><path d="M113 32.7834V48.5668H119.919C127.14 48.5668 129 48.1776 129.605 46.6209C129.735 46.2317 129.864 43.5507 129.864 40.6967C129.864 35.5509 129.864 35.5076 128.567 34.2536L127.27 32.9563L128.481 31.9185C129.605 30.9672 129.648 30.751 129.778 25.8646C130.037 17.4324 129.562 16.9999 119.486 16.9999H113V32.7834ZM122.859 26.0376C122.989 30.7077 122.816 31.2699 121.13 31.2699C120.438 31.2699 120.351 30.751 120.351 26.2538V21.2809L121.562 21.4107L122.73 21.5404L122.859 26.0376ZM122.124 35.5941C122.859 35.9833 122.946 36.5454 122.946 39.8318C122.946 43.7669 122.6 44.675 121.13 44.675C120.438 44.675 120.351 44.1993 120.351 39.9183C120.351 35.032 120.481 34.7293 122.124 35.5941Z" fill="currentColor" /><path d="M132.281 32.005C131.373 40.3075 130.551 47.3992 130.465 47.7884C130.249 48.4803 130.638 48.5668 133.924 48.5668H137.643V47.356C137.643 46.7074 137.773 45.4533 137.946 44.5452C138.162 43.0318 138.292 42.902 139.546 43.0318C140.324 43.1183 140.93 43.4209 140.973 43.8101C141.016 44.1561 141.189 45.3668 141.319 46.5344L141.578 48.5668H145.254H148.886L148.67 46.9236C148.367 44.9777 145.427 18.081 145.427 17.4324C145.427 17.1729 143.394 16.9999 139.676 16.9999H133.881L132.281 32.005ZM140.454 34.1239L140.757 39.14L139.546 38.967C138.854 38.8805 138.292 38.6211 138.292 38.4048C138.378 35.3346 139.027 25.8214 139.286 24.3511C139.546 22.4917 139.589 22.5349 139.849 25.7781C140.021 27.6375 140.281 31.3996 140.454 34.1239Z" fill="currentColor" /><path d="M151.359 17.6919C150.71 18.0379 149.975 18.8162 149.759 19.4216C149.499 20.027 149.326 26.2972 149.326 33.4321C149.326 46.2318 149.326 46.3615 150.321 47.4858C152.05 49.5615 157.153 49.475 159.099 47.3994L160.137 46.2751V47.4426C160.137 48.5669 160.18 48.5669 163.164 48.5669H166.191V39.9185V31.27H161.823H157.499L157.629 33.3024C157.715 35.0321 157.888 35.3348 158.537 35.2483C159.229 35.1186 159.272 35.5077 159.185 39.7887L159.056 44.4589H157.758H156.461V32.9997V21.5405H157.758H159.056L159.272 24.9999L159.488 28.4593H162.688H165.888L165.801 24.135C165.672 17.4757 165.066 17.0001 157.412 17.0001C153.91 17.0433 152.223 17.2163 151.359 17.6919Z" fill="currentColor" /></svg>