<svg xmlns="http://www.w3.org/2000/svg" width="248" height="66" viewBox="0 0 248 66" fill="currentColor"><g clip-path="url(#clip0_1125_25359)"><path d="M57.6006 14.0435C67.4109 14.773 75.196 22.9827 75.196 33.0435C75.196 43.0606 67.4109 51.2704 57.6006 51.9999V46.1747C66.6378 45.6085 69.2728 39.9575 69.2728 33.0435C69.2728 26.0859 66.6378 20.4349 57.6006 19.8687V14.0435Z" fill="currentColor" /><path d="M54.6608 14.0435V19.8687C45.6236 20.4349 42.9886 26.0859 42.9886 33.0435C42.9886 39.9575 45.6236 45.6085 54.6608 46.1747V51.9999C44.807 51.2704 37.0654 43.0606 37.0654 33.0435C37.0654 22.9827 44.807 14.773 54.6608 14.0435Z" fill="currentColor" /><path d="M54.6607 19.8687C48.0842 20.6091 42.9885 26.2165 42.9885 33.0434C42.9885 39.8268 48.0842 45.4343 54.6607 46.1747C45.6234 45.6085 38.5352 39.9575 38.5352 33.0434C38.5352 26.0858 45.6234 20.4348 54.6607 19.8687Z" fill="currentColor" /><path d="M73.7261 33.0434C73.7261 39.9575 66.6378 45.6085 57.6006 46.1747C64.1662 45.4343 69.2728 39.8268 69.2728 33.0434C69.2728 26.2165 64.1662 20.6091 57.6006 19.8687C66.6378 20.4348 73.7261 26.0858 73.7261 33.0434Z" fill="currentColor" /><path fill-rule="evenodd" clip-rule="evenodd" d="M139.774 30.3214C136.889 30.3214 134.548 27.9587 134.548 25.0297C134.548 22.1117 136.889 19.738 139.774 19.738C142.67 19.738 145.011 22.1117 145.011 25.0297C145.011 27.9587 142.67 30.3214 139.774 30.3214ZM142.888 25.0297C142.888 23.2114 141.495 21.7306 139.752 21.7306C138.021 21.7306 136.617 23.2114 136.617 25.0297C136.617 26.859 138.021 28.3398 139.752 28.3398C141.495 28.3398 142.888 26.859 142.888 25.0297ZM148.986 30.1908H146.95V21.0337C146.95 20.4349 147.429 19.9122 148.038 19.9122H154.604V21.9048H148.986V24.1913H153.787L153.221 26.173H148.986V30.1908ZM117.431 30.1908H115.874L110.637 23.5489V30.1908H108.612V19.9122L110.343 19.9231L115.439 26.3908V19.9231H117.431V30.1908ZM124.563 30.3541C121.623 30.3541 119.37 28.0676 119.37 25.0951C119.37 22.0681 121.667 19.7816 124.607 19.7816C126.545 19.7816 127.677 20.5547 128.538 21.3713L128.886 21.7197L127.503 23.2332L127.155 22.8412C126.295 22.0681 125.511 21.7197 124.563 21.7197C122.832 21.7197 121.493 23.1461 121.493 25.0515C121.493 26.9025 122.832 28.3724 124.563 28.3724C125.728 28.3724 126.458 27.8933 127.198 27.1638L127.59 26.859L128.973 28.1982L128.625 28.5902C127.764 29.4504 126.589 30.3541 124.563 30.3541ZM107.316 30.1799H105.062L103.985 27.7191H99.6183L98.4968 30.1799H96.3301L101.001 19.8687H102.645L107.316 30.1799ZM103.124 25.7701L101.785 22.7867L100.446 25.7701H103.124ZM95.6006 27.1094C95.6006 28.9713 94.0871 30.1799 91.7026 30.1799H87.0859V19.9014H91.5392C92.7043 19.9014 93.6951 20.2389 94.3048 20.8486C94.8202 21.364 95.0779 21.9846 95.0779 22.7105C95.0779 23.5743 94.7767 24.2639 94.1742 24.7793C95.0779 25.291 95.6006 26.1186 95.6006 27.1094ZM89.1547 24.0389H91.365C92.7914 24.0389 92.9983 23.3094 92.9983 22.8739C92.9983 21.9701 92.051 21.8395 91.4521 21.8395H89.1547V24.0389ZM93.5209 27.1094C93.5209 26.3617 92.8712 25.9879 91.5719 25.9879H89.1547V28.2309H91.7461C92.2687 28.2309 93.5209 28.1438 93.5209 27.1094ZM92.2252 46.3271C89.3289 46.3271 87.0859 44.0733 87.0859 41.0572C87.0859 38.0739 89.3725 35.7438 92.2687 35.7438C94.2613 35.7438 95.3392 36.5168 96.243 37.3879L96.5914 37.6819L95.2086 39.1953L94.8166 38.8578C94 38.0739 93.216 37.7254 92.2687 37.7254C90.494 37.7254 89.1983 39.1518 89.1983 41.0137C89.1983 42.9082 90.5375 44.3782 92.2687 44.3782C93.4338 44.3782 94.1306 43.91 94.9037 43.1696L95.2521 42.8211L96.6785 44.2039L96.2865 44.5524C95.4263 45.4125 94.3048 46.3271 92.2252 46.3271Z" fill="currentColor" /><path fill-rule="evenodd" clip-rule="evenodd" d="M107.698 46.1747H105.455L104.377 43.7139H99.9674L98.8785 46.1747H96.7227L101.394 35.8526H102.994L107.698 46.1747ZM103.539 41.7649L102.199 38.7924L100.86 41.7649H103.539ZM118.281 35.8962H120.317V46.1747H118.281V35.8962ZM136.356 46.3489C133.46 46.3489 131.119 43.9752 131.119 41.0572C131.119 38.1283 133.46 35.7655 136.356 35.7655C139.241 35.7655 141.582 38.1283 141.582 41.0572C141.582 43.9752 139.241 46.3489 136.356 46.3489ZM139.47 41.0572C139.47 39.228 138.065 37.7472 136.334 37.7472C134.603 37.7472 133.198 39.228 133.198 41.0572C133.198 42.8755 134.603 44.3563 136.334 44.3563C138.065 44.3563 139.47 42.8755 139.47 41.0572ZM162.466 46.1747H160.865L155.628 39.522V46.1747H153.646V35.9397H155.378L160.43 42.3747V35.9397H162.466V46.1747ZM164.927 35.8962H166.963V46.1747H164.927V35.8962ZM179.321 46.1747H177.078L175.989 43.7575H171.623L170.501 46.1747H168.346L173.017 35.8526H174.65L179.321 46.1747ZM175.129 41.8085L173.79 38.7924L172.45 41.8085H175.129ZM124.814 46.1747H122.778V37.0177C122.778 36.4079 123.257 35.9397 123.856 35.9397H130.433V37.8778H124.814V40.2079H129.605L129.05 42.1569H124.814V46.1747Z" fill="currentColor" /><path fill-rule="evenodd" clip-rule="evenodd" d="M152.448 46.1748H149.889L147.211 42.5381H145.523V46.1748H143.454V36.9742C143.498 36.408 143.966 35.8963 144.576 35.8963H147.777C148.986 35.8963 150.064 36.2773 150.76 36.9742C151.316 37.5295 151.621 38.3135 151.621 39.1301V39.1736C151.621 40.6 150.804 41.6779 149.465 42.157L152.448 46.1748ZM149.552 39.2607C149.552 38.0521 148.376 37.8779 147.69 37.8779H145.48V40.6435H147.646C148.811 40.6435 149.552 40.1318 149.552 39.2607ZM116.266 46.1748H110.082C109.472 46.1748 109.004 45.6957 109.004 45.0968V35.9398H111.029V44.2258H116.266V46.1748ZM185.08 35.8963H187.465V46.1748H185.08V35.8963ZM198.222 46.1748H196.404L191.7 40.1753V46.1748H189.316V35.8963H191.308L195.892 41.7324V35.8963H198.222V46.1748ZM204.407 46.349C201.467 46.349 199.257 44.106 199.257 41.0791C199.257 38.1066 201.554 35.7765 204.45 35.7765C206.443 35.7765 207.564 36.5931 208.381 37.3662L208.904 37.8453L207.259 39.5765L206.78 39.0974C206.007 38.357 205.31 38.1066 204.45 38.1066C202.893 38.1066 201.685 39.3587 201.685 41.0355C201.685 42.7232 202.893 44.0189 204.45 44.0189C205.485 44.0189 206.138 43.6269 206.824 42.941L207.347 42.5054L208.947 44.106L208.468 44.5851C207.651 45.4017 206.486 46.349 204.407 46.349ZM210.526 45.8808C210.058 45.8808 209.677 45.4997 209.677 45.0315C209.677 44.5633 210.058 44.1931 210.526 44.1931C210.994 44.1931 211.364 44.5633 211.364 45.0315C211.364 45.4997 210.994 45.8808 210.526 45.8808ZM180.409 47.0458L180.115 46.5232L180.289 46.4361C180.427 46.349 180.525 46.2619 180.583 46.1748C180.496 46.1457 180.424 46.0877 180.366 46.0006C180.257 45.8917 180.202 45.7646 180.202 45.6195C180.202 45.4453 180.257 45.3001 180.366 45.1839C180.583 44.9226 181.019 44.9226 181.237 45.2275C181.382 45.3727 181.454 45.5324 181.454 45.7066C181.454 46.251 181.149 46.6829 180.54 47.0023L180.409 47.0458Z" fill="currentColor" /></g><defs><clipPath id="clip0_1125_25359"><rect width="174.43" height="38" fill="currentColor" transform="translate(37 14)" /></clipPath></defs></svg>