<svg viewBox="0.419 1.258 44.434 45.27" fill="none" xmlns="http://www.w3.org/2000/svg">
  <path d="M 33.856 12.635 L 33.856 13.777 C 25.761 13.777 23.502 23.574 23.502 42.282 L 23.502 45.581 L 42.772 11.665 C 43.658 10.133 43.95 8.623 43.647 7.174 C 43.502 6.494 43.25 5.885 42.895 5.363 C 42.589 4.741 42.188 4.219 41.671 3.753 C 40.569 2.765 39.113 2.263 37.344 2.263 L 1.763 2.263 C 1.821 5.657 2.573 8.295 3.995 10.108 C 5.476 11.995 7.561 12.635 10.373 12.635 L 33.856 12.635 Z" fill="#337BFF" style="" transform="matrix(0.9999999999999999, 0, 0, 0.9999999999999999, 0, 0)"/>
</svg>