<svg width="111" height="28" viewBox="0 0 111 28" fill="none" xmlns="http://www.w3.org/2000/svg"><path d="M105.776 4.65042V5.16256C102.146 5.16256 101.133 9.55548 101.133 17.9448V19.4235L109.774 4.21577C110.171 3.52884 110.302 2.8513 110.166 2.20194C110.101 1.89643 109.988 1.62328 109.829 1.38978C109.692 1.11088 109.512 0.876339 109.28 0.667625C108.786 0.224628 108.133 0 107.34 0H91.3846C91.4107 1.52127 91.7473 2.70416 92.3862 3.51788C93.0499 4.36396 93.9852 4.65016 95.2456 4.65042H105.776Z" fill="#337BFF"/><path d="M57.9808 23.8637C58.7987 23.8637 59.6398 23.6305 60.5044 23.1627C60.7616 23.3968 60.9657 23.6887 61.118 24.0393C61.2696 24.3897 61.3458 24.7404 61.3458 25.0907C61.3458 25.5585 61.1822 26.0143 60.855 26.4578C60.5276 26.9019 60.0311 27.27 59.3653 27.5619C58.6995 27.8536 57.8874 28 56.9291 28C54.9429 28 53.4819 27.4278 52.5479 26.2825C51.6129 25.1377 51.1459 23.6655 51.1459 21.8661V13.3427H48.6288L44.9507 18.6761L51.0846 27.0534C50.7806 27.3811 50.395 27.6204 49.9278 27.7719C49.46 27.9238 48.993 28 48.526 28C48.0118 28 47.5033 27.9065 47.0013 27.7198C46.4983 27.5327 46.1422 27.2989 45.9322 27.0187L42.1819 21.4453L38.4659 27.0187C38.2559 27.3227 37.9285 27.5619 37.485 27.7372C37.0404 27.9123 36.5614 28 36.0475 28C35.557 28 35.0542 27.9238 34.5403 27.7719C34.0261 27.6204 33.617 27.3811 33.3136 27.0534L39.4125 18.6761L33.8393 10.5444C34.0261 10.3341 34.3882 10.1648 34.9259 10.0364C35.4633 9.90804 35.9423 9.84334 36.3631 9.84334C37.7182 9.84334 38.6295 10.2175 39.0973 10.9652L41.9713 15.5916L41.2353 16.608L41.5158 16.8186L45.2956 10.9741C45.3535 10.8694 45.4148 10.7693 45.4835 10.6787C45.927 10.0948 46.5116 9.80264 47.2364 9.80264H51.2158V7.3899C51.2158 6.3852 51.6014 5.66696 52.3726 5.23388C53.1435 4.8021 54.3121 4.58556 55.878 4.58556V9.80264H60.5396C60.5396 11.0646 60.3056 11.9704 59.8386 12.5191C59.3708 13.0685 58.5999 13.3427 57.525 13.3427H55.9479V21.6908C55.9479 22.4617 56.0995 23.0174 56.4034 23.3558C56.7068 23.6947 57.2328 23.8637 57.9808 23.8637Z" fill="#0c1224"/><path fill-rule="evenodd" clip-rule="evenodd" d="M30.0889 21.6206C31.0469 21.6206 31.7828 21.8197 32.2971 22.2167C32.811 22.6141 33.0683 23.1979 33.0683 23.9689C33.0683 24.6 32.7528 25.2308 32.122 25.8619C31.4909 26.4925 30.6203 27.007 29.5105 27.4038C28.4006 27.8009 27.1676 28 25.8128 28C24.3636 28 23.0262 27.7075 21.7995 27.1236C20.5725 26.5397 19.5965 25.7451 18.8725 24.7404C18.148 23.7356 17.7856 22.6141 17.7856 21.3753V16.8888C17.7856 15.5804 18.154 14.3826 18.89 13.2957C19.626 12.2094 20.6132 11.3625 21.8519 10.7546C23.0901 10.1473 24.422 9.84334 25.8475 9.84334C27.2498 9.84334 28.5407 10.1295 29.721 10.7022C30.9005 11.2751 31.8293 12.0813 32.5073 13.1207C33.1849 14.1606 33.5243 15.3349 33.5243 16.6433V18.5363C33.5243 19.097 33.3135 19.5702 32.8932 19.9556C32.4726 20.3412 31.9344 20.534 31.2806 20.534H22.4478V21.0247C22.4478 21.9595 22.7335 22.7247 23.3064 23.3206C23.8788 23.9165 24.7259 24.2144 25.8475 24.2144C26.9459 24.2144 27.752 23.9751 28.2663 23.4956C28.78 23.0174 29.0375 22.4153 29.0375 21.6908C29.5045 21.6441 29.8551 21.6206 30.0889 21.6206ZM23.3769 14.4173C22.7572 14.9668 22.4478 15.7087 22.4478 16.6433V17.134H29.1776V16.6433C29.1776 15.7087 28.8676 14.9668 28.2485 14.4173C27.6292 13.8687 26.8173 13.5939 25.8128 13.5939C24.8076 13.5939 23.9954 13.8687 23.3769 14.4173Z" fill="#0c1224"/><path fill-rule="evenodd" clip-rule="evenodd" d="M74.3847 10.7544C73.1227 10.1473 71.6974 9.84313 70.1086 9.84313C68.519 9.84313 67.0942 10.1473 65.8323 10.7544C64.5706 11.3626 63.5889 12.1977 62.8879 13.2611C62.1871 14.3242 61.8367 15.4985 61.8367 16.7834V21.4453C61.8367 22.707 62.1983 23.8348 62.9231 24.8278C63.6471 25.8213 64.6405 26.5977 65.9025 27.1589C67.1642 27.7195 68.5665 28 70.1086 28C71.6507 28 73.0528 27.7195 74.3147 27.1589C75.5767 26.5977 76.5696 25.8213 77.2941 24.8278C78.0184 23.8348 78.3808 22.707 78.3808 21.4453V16.7834C78.3808 15.4985 78.0304 14.3242 77.3291 13.2611C76.6281 12.1977 75.6466 11.3626 74.3847 10.7544ZM73.5785 21.0947C73.5785 21.9595 73.2746 22.6371 72.6672 23.1278C72.0596 23.6183 71.2065 23.8638 70.1086 23.8638C69.01 23.8638 68.1571 23.6183 67.55 23.1278C66.9419 22.6371 66.6385 21.9595 66.6385 21.0947V17.0289C66.6385 16.1176 66.9479 15.3814 67.5672 14.8207C68.1861 14.2598 69.0335 13.9793 70.1086 13.9793C71.183 13.9793 72.0301 14.2598 72.6497 14.8207C73.2688 15.3814 73.5785 16.1176 73.5785 17.0289V21.0947Z" fill="#0c1224"/><path d="M92.9446 10.6494C93.8439 11.1874 94.5511 11.9288 95.0654 12.8753C95.5788 13.8219 95.8363 14.8793 95.8363 16.0473V25.196C95.8363 26.2007 95.4387 26.9192 94.6445 27.3515C93.8501 27.7838 92.6466 27.9999 91.0343 27.9999V16.7835C91.0343 15.9894 90.7828 15.3236 90.2806 14.7856C89.7781 14.2482 89.0716 13.9792 88.1603 13.9792C87.0382 13.9792 86.1269 14.3418 85.4264 15.0661C84.7251 15.7906 84.3747 16.7019 84.3747 17.8V25.196C84.3747 26.2007 83.9831 26.9192 83.2002 27.3515C82.4173 27.7838 81.2078 27.9999 79.5725 27.9999V13.489C79.5725 12.3204 79.9581 11.4209 80.729 10.7898C81.5005 10.1589 82.6453 9.84325 84.1639 9.84325V11.9113C83.8138 12.2857 83.5211 12.6826 83.2879 13.1031L83.5334 13.2435C84.2344 12.1689 85.1282 11.3329 86.2148 10.7373C87.3012 10.1414 88.5107 9.84325 89.8425 9.84325C91.0106 9.84325 92.0447 10.112 92.9446 10.6494Z" fill="#0c1224"/><path d="M13.3721 10.6494C12.4723 10.112 11.4381 9.84325 10.2701 9.84325C8.93821 9.84325 7.72871 10.1414 6.64235 10.7373C5.55573 11.3329 4.6619 12.1686 3.96088 13.2435L3.71538 13.1031C3.94862 12.6825 4.24134 12.2855 4.59146 11.9113V9.84325C3.07254 9.84325 1.928 10.1589 1.15654 10.7898C0.385601 11.4209 0 12.3204 0 13.4887V27.9999C1.63528 27.9999 2.84478 27.7838 3.62772 27.3515C4.41066 26.9192 4.80227 26.2007 4.80227 25.196V17.8C4.80227 16.7019 5.15264 15.7906 5.85393 15.0661C6.55443 14.3418 7.46572 13.9792 8.58783 13.9792C9.49913 13.9792 10.2056 14.2482 10.7081 14.7853C11.2103 15.3236 11.4618 15.9894 11.4618 16.7835V27.9999C13.0742 27.9999 14.2777 27.7838 15.0721 27.3515C15.8662 26.9192 16.2638 26.2007 16.2638 25.196V16.0473C16.2638 14.8793 16.0063 13.8219 15.4929 12.8753C14.9787 11.9288 14.2714 11.1874 13.3721 10.6494Z" fill="#0c1224"/></svg>
